<svg width="84" height="84" viewBox="0 0 84 84" fill="none" xmlns="http://www.w3.org/2000/svg">
<path d="M7.81064 61.0996C5.52892 59.1891 3.74243 56.9266 2.46274 54.2749C1.38738 52.0466 0.707699 49.6994 0.328351 47.2507C0.0572477 45.5008 -0.0239013 43.7478 0.00578626 41.9867C0.0514636 39.277 0.471662 36.6189 1.33468 34.0501C2.49954 30.5828 4.35778 27.5328 7.04628 25.0261C8.67215 23.5102 10.5179 22.3198 12.5578 21.4256C14.0163 20.7863 15.5299 20.337 17.0854 20.0201C17.5486 19.9257 18.0195 19.8694 18.4869 19.7959C18.7756 19.7504 18.8987 19.5873 18.9458 19.2911C19.1615 17.9347 19.3394 16.5677 19.6487 15.2319C20.0852 13.3463 20.8562 11.5818 21.8705 9.92932C23.0663 7.98133 24.5387 6.27326 26.3341 4.8546C28.6879 2.99459 31.3156 1.65625 34.2205 0.915272C35.635 0.554435 37.0793 0.242263 38.5288 0.104172C40.127 -0.0480846 41.7465 0.0189041 43.3568 0.000828937C44.9968 -0.0175772 46.5998 0.272874 48.1877 0.63951C52.3172 1.59298 55.9692 3.45907 58.9838 6.46555C60.9122 8.38878 62.419 10.6203 63.3526 13.1885C63.831 14.5044 64.1687 15.8737 64.524 17.2309C64.6436 17.688 64.8092 17.9207 65.3146 18.0075C68.8027 18.6062 71.9921 19.9421 74.8009 22.1006C76.5705 23.4605 78.0625 25.0997 79.298 26.9723C80.8318 29.297 81.8962 31.823 82.569 34.5121C83.0255 36.3366 83.2747 38.195 83.397 40.0786C83.5813 42.9176 83.4305 45.7344 82.9252 48.5226C82.365 51.6141 81.3505 54.5515 79.7293 57.2721C78.6345 59.1092 77.3038 60.7418 75.7382 62.1797C74.1354 63.6517 72.3282 64.8442 70.3151 65.6736C69.0749 66.1845 67.7788 66.562 66.4997 66.9745C66.1834 67.0766 66.0513 67.2724 65.9712 67.561C65.4129 69.5733 64.5691 71.4601 63.4453 73.2189C62.0177 75.4533 60.2177 77.3326 58.0499 78.8641C55.6131 80.5857 52.9294 81.7575 50.0458 82.4814C48.2198 82.9398 46.3638 83.1901 44.4827 83.3285C42.3752 83.4834 40.2773 83.3945 38.1887 83.19C36.0952 82.9851 34.0419 82.5178 32.0397 81.8505C29.7635 81.092 27.639 80.0373 25.6791 78.6498C23.7511 77.2849 22.1186 75.6298 20.7627 73.6982C19.1244 71.3644 18.0399 68.7872 17.4217 66.013C17.305 65.4894 17.0563 65.2405 16.5277 65.1492C14.4206 64.7853 12.4492 64.0113 10.5915 62.9795C9.62619 62.4432 8.75103 61.7446 7.81064 61.0996ZM36.1326 74.5088C37.733 75.0378 39.3945 75.2849 41.0609 75.3732C44.0661 75.5323 47.0008 75.1174 49.7812 73.8974C51.6071 73.0962 53.2286 71.9831 54.5413 70.4765C56.5443 68.1775 57.7206 65.5048 57.9753 62.4517C58.1915 59.8594 58.0493 57.307 57.1087 54.8417C56.0775 52.1387 54.4136 49.9312 52.0577 48.2425C49.7116 46.561 46.9498 45.9499 44.2501 45.1753C44.0046 45.1049 43.8558 45.1933 43.7867 45.4445C43.6846 45.8156 43.5708 46.1835 43.4567 46.5512C42.9309 48.2466 42.4843 49.9722 41.8567 51.6291C40.9712 53.9665 39.6911 56.0924 38.0851 58.0253C36.6216 59.7867 34.919 61.2565 32.9809 62.4606C31.1432 63.6024 29.1645 64.4122 27.0666 64.9394C26.5347 65.0731 26.4889 65.1771 26.6836 65.6933C27.2775 67.2677 28.0404 68.7386 29.1428 70.0359C31.0049 72.2273 33.3481 73.6416 36.1326 74.5088ZM26.6313 38.1461C25.6584 37.1771 24.6331 36.2545 23.7241 35.2288C22.1972 33.5057 21.1239 31.495 20.2957 29.3548C20.0236 28.6518 19.9064 28.5497 19.1983 28.6748C16.6421 29.1266 14.3258 30.0854 12.372 31.8474C10.0797 33.9146 8.78506 36.5254 8.20389 39.5064C7.80466 41.5541 7.81092 43.6127 8.14789 45.6866C8.60279 48.4863 9.6992 50.9644 11.6468 53.0229C12.8793 54.3256 14.3646 55.2804 16.0566 55.9317C18.4152 56.8396 20.8515 57.0181 23.3079 56.6715C25.3595 56.3819 27.2847 55.6484 28.9878 54.4111C31.3139 52.7212 32.9245 50.4949 33.8625 47.7989C34.3918 46.2776 34.7874 44.71 35.2545 43.1668C35.3678 42.7925 35.2774 42.6138 34.8852 42.4855C33.9298 42.1729 32.9705 41.8545 32.0526 41.4485C30.124 40.5953 28.3108 39.5371 26.6313 38.1461ZM73.4088 33.5918C72.6241 32.1849 71.6447 30.9357 70.4317 29.8694C69.2062 28.7921 67.8319 27.9614 66.3037 27.4022C64.9243 26.8974 63.5135 26.4925 62.0262 26.4936C60.7417 26.4946 59.4394 26.3992 58.1767 26.575C55.5597 26.9393 53.1515 27.8885 51.0614 29.5651C48.9015 31.2977 47.3938 33.4775 46.4658 36.0781C46.3138 36.5041 46.4508 36.6628 46.8436 36.7744C48.2097 37.1629 49.5762 37.5518 50.9311 37.977C54.2459 39.0174 57.1774 40.736 59.7252 43.0897C61.9059 45.1042 63.5541 47.5095 64.7837 50.2081C65.7613 52.3536 66.3519 54.6054 66.6716 56.9343C66.7252 57.3246 66.8451 57.3838 67.2577 57.1874C68.5503 56.5721 69.722 55.777 70.754 54.7835C73.2788 52.353 74.5968 49.3033 75.1625 45.9142C75.5037 43.8698 75.5904 41.8054 75.3028 39.7252C75.0077 37.59 74.4367 35.5596 73.4088 33.5918ZM27.7805 22.681C28.0461 25.3992 29.0517 27.8159 30.8309 29.8808C32.5346 31.8582 34.7027 33.1549 37.1711 33.9638C37.7885 34.1661 37.817 34.1037 38.0612 33.5C38.5982 32.172 39.1099 30.8251 39.7677 29.5564C41.0957 26.9953 42.8912 24.7909 45.1158 22.9378C46.7884 21.5445 48.6007 20.3724 50.628 19.5898C52.0865 19.0268 53.6032 18.6135 55.0988 18.149C55.4226 18.0484 55.5873 17.913 55.484 17.5484C54.7809 15.0665 53.5351 12.915 51.5743 11.2177C49.0907 9.06794 46.1266 8.09048 42.9077 7.8611C40.6778 7.7022 38.4773 7.9544 36.3421 8.68174C33.7104 9.57822 31.5404 11.105 29.9472 13.3882C28.0112 16.1627 27.4493 19.2826 27.7805 22.681Z" fill="#161717"/>
</svg>
