<svg width="8" height="9" viewBox="0 0 8 9" fill="none" xmlns="http://www.w3.org/2000/svg">
<path fill-rule="evenodd" clip-rule="evenodd" d="M7.45898 4.55192C7.45898 4.99654 7.09855 5.35698 6.65392 5.35698L5.88797 5.35698V5.35698C5.20695 5.35698 4.65488 5.90905 4.65488 6.59007L4.65488 7.61516C4.65488 8.05978 4.29444 8.42022 3.84982 8.42022V8.42022C3.4052 8.42022 3.04476 8.05978 3.04476 7.61516L3.04476 6.50344C3.04476 5.87027 2.53147 5.35698 1.8983 5.35698V5.35698L1.10097 5.35698C0.656348 5.35698 0.295911 4.9946 0.295911 4.54998V4.54998C0.295911 4.10749 0.654617 3.74686 1.0971 3.74686V3.74686C1.53959 3.74686 1.8983 3.38815 1.8983 2.94567L1.8983 2.1171C1.8983 1.67248 2.25873 1.31204 2.70336 1.31204V1.31204C3.14798 1.31204 3.50842 1.67248 3.50842 2.1171L3.50842 3.36214C3.50842 3.57462 3.68066 3.74686 3.89313 3.74686V3.74686C4.1056 3.74686 4.27785 3.57462 4.27785 3.36214L4.27785 1.28455C4.27785 0.83993 4.63829 0.479492 5.08291 0.479492V0.479492C5.52753 0.479492 5.88797 0.83993 5.88797 1.28455L5.88797 2.96135C5.88797 3.39517 6.23965 3.74686 6.67348 3.74686V3.74686C7.1073 3.74686 7.45898 4.09854 7.45898 4.53237L7.45898 4.55192Z" fill="#FFE600"/>
</svg>
