<svg width="56" height="73" viewBox="0 0 56 73" fill="none" xmlns="http://www.w3.org/2000/svg">
<g clip-path="url(#clip0_1639_362)">
<path d="M11.2498 7.46961L13.8458 6.18499C14.0401 6.10076 14.2463 5.96671 14.449 5.91816C14.5848 5.88569 14.7268 5.8161 14.8599 5.76997C15.7321 5.46771 16.5619 5.33799 17.4921 5.22763C17.6978 5.20325 17.9013 5.18721 18.1027 5.17948C18.9826 5.14604 19.8158 5.16065 20.6023 5.22332C22.9228 5.40824 25.2086 6.15334 27.3878 6.98901C28.2653 7.32557 29.1403 7.66266 30.007 8.02705C30.0954 8.06432 30.2154 8.09915 30.3668 8.13156L31.0029 9.41693C30.9123 9.51579 30.8431 9.62699 30.7952 9.75053C30.7769 9.79843 30.7098 9.86602 30.6788 9.92631C30.6219 10.0373 30.563 10.147 30.5021 10.2555C30.4623 10.3259 30.4431 10.4218 30.3853 10.4964C30.171 10.773 29.8725 10.9293 29.5306 10.9902C29.2801 11.0348 28.9538 11.0015 28.6947 10.9602C27.4348 10.7602 25.7574 10.4863 23.6625 10.1385C22.9509 10.0204 22.2071 9.92104 21.564 9.81204C20.9081 9.70083 20.2963 9.73805 19.6524 9.92488C19.4117 9.99498 19.1918 10.1097 18.9928 10.269C18.8432 10.3889 18.7121 10.5121 18.5995 10.6387C18.2065 11.0796 18.0812 11.686 18.2436 12.2511C18.2628 12.3176 18.2763 12.3898 18.2945 12.4571C18.3057 12.4975 18.3411 12.5345 18.3355 12.5869C18.3346 12.5971 18.337 12.607 18.3422 12.615C18.38 12.6712 18.3849 12.7351 18.4 12.7828C18.5244 13.1743 18.6375 13.5689 18.7392 13.9666C18.8227 14.2929 18.901 14.563 18.8806 14.9047C18.851 15.413 18.6299 15.7614 18.8581 16.2759C19.1961 17.0384 19.5273 17.8064 19.8846 18.5597C20.093 18.9988 20.2974 19.4397 20.4978 19.8823C20.7735 20.4921 21.0848 21.0901 21.3991 21.6809C21.6721 22.194 21.935 22.7009 22.2179 23.22C22.4743 23.6912 22.7144 24.1705 22.9382 24.6578C23.3883 25.6372 23.9015 26.5803 24.379 27.5451C25.1628 29.1285 25.9468 30.7117 26.731 32.2946C26.9496 32.7356 27.1917 33.1585 27.4326 33.5833C27.4919 33.6878 27.5515 33.7765 27.6114 33.8492C27.6986 33.9549 27.7736 34.032 27.8363 34.0804C28.127 34.3036 28.4525 34.5572 28.6538 34.8665C28.8615 35.1854 29.1416 35.6263 29.4941 36.1893C29.9455 36.9104 30.5421 37.8332 31.2837 38.9578C31.5412 39.3482 31.8044 39.7654 32.0685 40.1672C32.5744 40.9355 33.0772 41.7058 33.577 42.478C33.6906 42.6538 33.7985 42.8263 33.9008 42.9956C34.4885 43.9695 35.0617 44.9518 35.6203 45.9425C35.8593 46.3659 36.1116 46.8447 36.3871 47.3137C36.9011 48.1887 37.3546 49.1112 37.7477 50.081C37.9688 50.6262 38.2086 51.1628 38.467 51.6909C38.5972 51.9567 38.78 52.2502 38.9162 52.5158C39.1004 52.8748 39.4368 53.5298 39.6504 54.056C39.7934 54.4081 39.9031 54.6641 39.9794 54.8239C40.1807 55.2446 40.4983 55.7666 40.7339 56.24C40.8265 56.4262 40.9186 56.6126 41.0102 56.7992C41.014 56.8073 41.0206 56.8147 41.0298 56.8215C41.0474 56.8348 41.061 56.8515 41.0706 56.8714C41.1985 57.1367 41.3881 57.4314 41.5027 57.6368C41.7362 58.0551 41.9811 58.4665 42.2377 58.8712C42.2742 58.929 42.3269 59.0051 42.3536 59.062C42.3959 59.1507 42.4647 59.2276 42.5077 59.3048C42.5635 59.4042 42.6238 59.501 42.6886 59.5952C43.1049 60.2001 43.5228 60.8038 43.9423 61.4063C44.3476 61.9884 44.699 62.5217 44.9424 63.1537C45.1733 63.7537 45.1627 64.3523 44.7495 64.8737C44.6534 64.9951 44.4977 65.1536 44.2824 65.3493C44.2012 65.4229 44.1681 65.5046 44.1136 65.5963L42.8706 66.2114C42.7785 66.1857 42.6844 66.1898 42.5881 66.2239C41.9535 66.4487 41.2932 66.6188 40.6191 66.6532C40.435 66.6626 40.1739 66.6479 39.8357 66.6091C39.4751 66.568 39.1962 66.4169 38.9598 66.1485C38.9302 66.1152 38.9025 66.0618 38.86 66.0257C38.8523 66.0192 38.8467 66.0108 38.8438 66.0013C38.8227 65.9317 38.7694 65.8883 38.7417 65.8364C38.4775 65.337 38.2351 64.8274 38.0145 64.3074C37.8571 63.937 37.7014 63.5659 37.5473 63.1941C37.314 62.6323 37.0748 62.0729 36.8298 61.516C36.7931 61.433 36.7562 61.3369 36.7215 61.2648C36.3617 60.5105 36.1122 60.0124 35.9729 59.7706C35.5429 59.0238 35.1234 58.271 34.7145 57.5124C34.4743 57.0671 34.0273 56.3221 33.6696 55.6483C33.2213 54.8041 32.8424 54.1284 32.5329 53.6213C31.8369 52.4817 31.1987 51.3087 30.5156 50.1613C30.0924 49.4502 29.8188 48.97 29.695 48.7208C29.3226 47.9709 28.9516 47.2202 28.5819 46.4686C28.5074 46.3173 28.4358 46.0925 28.328 45.9147C28.3233 45.9071 28.3213 45.8974 28.3222 45.887C28.3264 45.8341 28.2895 45.7962 28.2748 45.7616C27.9793 45.0565 27.6937 44.3474 27.418 43.6342C27.3716 43.5149 27.3136 43.4211 27.2742 43.2897C27.2616 43.2469 27.1868 43.1263 27.1953 43.0908C27.1965 43.0853 27.1971 43.08 27.197 43.0754C27.1969 43.0708 27.1961 43.0668 27.1946 43.0639L27.0559 42.7836C27.0545 42.7806 27.0537 42.7767 27.0536 42.7721C27.0535 42.7674 27.0542 42.7621 27.0555 42.7565C27.0638 42.7221 26.9823 42.5858 26.9683 42.5443C26.9386 42.4567 26.9173 42.3998 26.9044 42.3737C26.8414 42.2473 26.7985 42.1225 26.7453 41.9922C26.4008 41.1499 26.0577 40.3071 25.716 39.4636C25.6132 39.2104 25.5558 39.0168 25.5436 38.883C25.5071 38.4837 25.4716 38.2211 25.4369 38.0952C25.3298 37.7079 25.1648 37.3484 24.9418 37.0166C24.7617 36.7489 24.5466 36.4669 24.5764 36.1304C24.5981 35.8827 24.5894 35.6362 24.5501 35.391C24.5413 35.3363 24.5286 35.2922 24.512 35.2587C23.8821 33.9859 23.2523 32.7131 22.6224 31.4403C22.5255 31.2445 22.4323 31.0782 22.3427 30.9414C22.1362 30.6255 21.8648 30.3053 21.6919 30.0208C21.4839 29.6793 21.3085 29.3217 21.1655 28.9481C21.061 28.6753 20.9806 28.3478 20.8919 28.0454C20.8631 27.9478 20.8243 27.8525 20.7754 27.7596C20.3991 27.0476 19.9934 26.3162 19.6873 25.5719C19.6531 25.4888 19.5188 25.2693 19.5254 25.1949C19.5262 25.1844 19.5245 25.1744 19.5203 25.166C19.1769 24.501 18.861 23.8232 18.5726 23.1327C18.0719 21.9329 17.5814 20.9472 16.9544 19.6948C16.9503 19.6864 16.9486 19.6765 16.9495 19.6662C16.9511 19.6459 16.9497 19.6314 16.9454 19.6226C16.6987 19.1242 16.452 18.6256 16.2053 18.127C16.1809 18.0777 16.1408 18.0506 16.1126 17.9978C15.8598 17.5234 15.1757 17.3526 14.8109 17.1024C14.521 16.9037 14.2689 16.656 14.0077 16.422C13.6075 16.0631 13.0389 15.7973 12.4833 15.7553C12.2783 15.74 12.0588 15.7386 11.8665 15.7058C11.57 15.6554 11.2648 15.5569 10.9669 15.6764C10.7974 15.7444 10.6436 15.8402 10.5056 15.9639C10.4674 15.9981 10.4222 16.0096 10.3829 16.0423C10.2537 16.1495 10.0522 16.2247 9.89991 16.2997C9.89244 16.3034 9.88222 16.3046 9.87085 16.3032C9.83253 16.2983 9.80965 16.3239 9.78618 16.3332C9.43257 16.4714 9.20589 16.7313 8.96274 16.9973C8.94804 17.0132 8.89504 17.0517 8.80374 17.1128L8.54484 17.2862C8.53063 17.2957 8.52289 17.3006 8.52161 17.3008C8.36801 17.3138 8.37697 17.0955 8.18425 17.147C8.04132 17.185 7.87678 17.3107 7.82603 17.4645C7.79018 17.5738 7.81945 17.7201 7.788 17.8507C7.6458 18.4382 7.34878 19.1289 6.80797 19.4513C6.76262 19.4785 6.72869 19.5178 6.68044 19.5488C6.47423 19.6822 6.27981 19.8588 6.09111 20.0172C6.07799 20.028 6.04509 20.0495 5.9924 20.0817C5.91158 20.1312 5.84643 20.1944 5.74257 20.2257C5.64471 20.2551 5.59084 20.2713 5.58096 20.2744C4.49948 20.6182 3.39922 19.3436 2.91605 18.5801C2.87408 18.5137 2.77057 18.3386 2.60554 18.0549C2.2046 17.3654 1.81819 16.6677 1.44629 15.9617L1.15194 15.3669C1.18774 15.3114 1.2273 15.267 1.24892 15.2022C1.27894 15.1117 1.31696 15.0425 1.36299 14.9945C1.54199 14.8083 1.84048 14.5877 2.02637 14.4395C2.36881 14.1659 2.71361 13.8954 3.06076 13.6281C3.08566 13.6093 3.13574 13.5944 3.15854 13.5596C3.1649 13.5499 3.17174 13.5425 3.17907 13.5375C3.25423 13.4885 3.32911 13.4392 3.40373 13.3896C3.72994 13.1734 4.08566 13.033 4.47087 12.9684C4.83214 12.9079 5.17165 12.8359 5.48942 12.7524C5.54346 12.7381 5.59679 12.7215 5.6494 12.7025C5.94657 12.5954 6.23044 12.4623 6.50099 12.3032C6.58097 12.2561 6.65817 12.1938 6.72938 12.1483C7.25644 11.8106 7.55852 11.3996 7.81186 10.8224C7.90386 10.6121 8.06679 10.2715 8.30065 9.80058C8.4217 9.55684 8.52172 9.37933 8.60071 9.26807C8.97427 8.74105 9.50873 8.40371 10.0773 8.1271C10.1343 8.09923 10.1994 8.04831 10.2623 8.01718C10.4617 7.9183 10.6556 7.80954 10.844 7.69088C10.9707 7.61114 11.1168 7.55043 11.2498 7.46961Z" fill="#DBFF00"/>
</g>
<defs>
<clipPath id="clip0_1639_362">
<rect width="29.3933" height="66.6726" fill="white" transform="translate(0 13.0371) rotate(-26.3287)"/>
</clipPath>
</defs>
</svg>
