<svg width="11" height="12" viewBox="0 0 11 12" fill="none" xmlns="http://www.w3.org/2000/svg">
<path id="Union" fill-rule="evenodd" clip-rule="evenodd" d="M10.146 5.76831C10.146 6.39809 9.63546 6.90862 9.00568 6.90862L7.92074 6.90862V6.90862C6.9561 6.90862 6.1741 7.69062 6.1741 8.65526L6.1741 10.1069C6.1741 10.7367 5.66357 11.2473 5.03379 11.2473V11.2473C4.40401 11.2473 3.89348 10.7367 3.89348 10.1069L3.89348 8.53243C3.89348 7.63563 3.16647 6.90862 2.26967 6.90862V6.90862L1.14031 6.90862C0.510535 6.90862 -2.79549e-07 6.39534 -2.52021e-07 5.76556V5.76556C-2.24624e-07 5.13881 0.508082 4.628 1.13483 4.628V4.628C1.76159 4.628 2.26967 4.11992 2.26967 3.49316L2.26967 2.31956C2.26967 1.68979 2.7802 1.17925 3.40998 1.17925V1.17925C4.03976 1.17925 4.55029 1.68978 4.55029 2.31956L4.55029 4.08308C4.55029 4.38403 4.79426 4.628 5.09521 4.628V4.628C5.39615 4.628 5.64012 4.38403 5.64012 4.08309L5.64012 1.14031C5.64012 0.510535 6.15065 -1.74642e-07 6.78043 -1.47113e-07V-1.47113e-07C7.41021 -1.19585e-07 7.92074 0.510534 7.92074 1.14031L7.92074 3.51537C7.92074 4.12986 8.41888 4.628 9.03337 4.628V4.628C9.64786 4.628 10.146 5.12614 10.146 5.74062L10.146 5.76831Z" fill="#2DFF5B"/>
</svg>
