<svg width="93" height="23" viewBox="0 0 93 23" fill="none" xmlns="http://www.w3.org/2000/svg">
<path d="M45.7867 22.4142C45.825 22.3906 45.8634 22.3652 45.9132 22.3318C45.4243 22.1123 45.2459 21.7242 45.2632 21.2126C45.2747 20.8832 45.2708 20.5539 45.2651 20.2246C45.2555 19.6699 44.8988 19.2935 44.3504 19.272C43.9803 19.2582 43.6083 19.272 43.2382 19.268C42.6054 19.2641 42.2142 18.8917 42.2142 18.2507C42.2066 15.8514 42.2066 13.4502 42.2142 11.0509C42.2162 10.3707 42.6246 9.97868 43.2958 9.9728C43.6428 9.97084 43.9918 9.9728 44.3389 9.9728C44.9084 9.9728 45.2613 9.61604 45.2651 9.02994C45.2689 8.66142 45.2632 8.29291 45.2651 7.92439C45.2689 7.29125 45.639 6.91489 46.2584 6.91489C48.8068 6.91489 51.3572 6.91489 53.9056 6.91489C54.2022 6.91489 54.3499 6.76853 54.3486 6.47581C54.3486 4.67242 54.3486 2.86708 54.3486 1.0637C54.3486 0.750071 54.3524 0.746151 54.6573 0.746151C55.5068 0.746151 56.3563 0.752031 57.2058 0.74223C57.4167 0.74027 57.4838 0.804957 57.4838 1.02254C57.48 8.05768 57.48 15.0948 57.48 22.1299C57.48 22.224 57.4704 22.3181 57.4646 22.4122H45.7848L45.7867 22.4142ZM54.3486 14.6283C54.3486 13.1934 54.3467 11.7566 54.3524 10.3217C54.3524 10.1237 54.2987 10.0434 54.0897 10.0434C51.5183 10.0473 48.9449 10.0394 46.3734 10.0434C45.6429 10.0434 45.3341 10.3805 45.3341 11.1175C45.3341 12.7563 45.3341 14.397 45.336 16.0357C45.336 16.7884 45.3303 17.5411 45.3418 18.2938C45.3495 18.8525 45.7061 19.1955 46.2526 19.1955C48.849 19.1955 51.4435 19.1955 54.0399 19.1955C54.3505 19.1955 54.3524 19.1955 54.3524 18.8838C54.3524 17.4647 54.3524 16.0435 54.3524 14.6243L54.3486 14.6283Z" fill="black"/>
<path d="M63.3978 22.4143C63.4323 22.3869 63.4688 22.3614 63.5186 22.3222C62.9664 22.1477 62.8053 21.7439 62.8206 21.2088C62.8302 20.8266 62.8628 20.4404 62.7938 20.0601C62.7075 19.5877 62.393 19.2976 61.9175 19.276C61.5244 19.2604 61.1293 19.2721 60.7362 19.2702C60.184 19.2682 59.7832 18.8781 59.7736 18.3155C59.764 17.7588 59.7698 17.2022 59.7698 16.6455C59.7698 14.8186 59.7698 12.9916 59.7698 11.1647C59.7698 10.3336 60.1245 9.97491 60.9414 9.97295C61.2655 9.97295 61.5895 9.97491 61.9136 9.97295C62.4505 9.97099 62.8149 9.60835 62.8225 9.05949C62.8283 8.66745 62.8225 8.27542 62.8245 7.88338C62.8283 7.29728 63.2099 6.91504 63.7871 6.91504C67.4324 6.91504 71.0777 6.91504 74.721 6.91504C75.0336 6.91504 75.0432 6.92288 75.0432 7.22083C75.0432 12.2076 75.0413 17.1963 75.0394 22.183C75.0394 22.2634 75.0394 22.3398 75.0758 22.4124H63.3959L63.3978 22.4143ZM71.9099 14.6343C71.9099 13.223 71.9099 11.8116 71.9099 10.3983C71.9099 10.1618 71.791 10.0435 71.5532 10.0435C69.0585 10.0435 66.5637 10.0416 64.069 10.0396C63.9692 10.0396 63.8676 10.0396 63.7679 10.0474C63.2329 10.0886 62.9012 10.4356 62.8935 10.9766C62.8877 11.4313 62.8935 11.8861 62.8935 12.3409C62.8935 14.3089 62.8935 16.2789 62.8973 18.2469C62.8973 18.8507 63.2502 19.1976 63.835 19.1976C66.4141 19.1976 68.9952 19.1976 71.5743 19.1976C71.7967 19.1976 71.908 19.0879 71.908 18.8683C71.908 17.457 71.908 16.0456 71.908 14.6323L71.9099 14.6343Z" fill="black"/>
<path d="M3.88679 22.4143C3.92514 22.3908 3.96349 22.3673 4.02294 22.33C3.44767 22.1262 3.30001 21.6851 3.31152 21.1343C3.31727 20.7756 3.35946 20.413 3.277 20.0562C3.15236 19.5152 2.8724 19.2819 2.33164 19.2721C1.96155 19.2643 1.58954 19.276 1.21945 19.2702C0.674866 19.2623 0.312447 18.9056 0.312447 18.3547C0.308612 15.8614 0.308612 13.366 0.312447 10.8727C0.312447 10.3728 0.713218 9.99647 1.25972 9.97687C1.64515 9.96315 2.0325 9.97491 2.41793 9.97295C2.94143 9.97295 3.30577 9.61031 3.31535 9.07518C3.32111 8.69098 3.31344 8.30678 3.31727 7.92258C3.32494 7.30512 3.71229 6.91504 4.32208 6.91504C7.9597 6.91504 11.5973 6.91504 15.2349 6.91504C15.5245 6.91504 15.536 6.92876 15.536 7.21887C15.536 12.2076 15.5341 17.1943 15.5322 22.183C15.5322 22.2634 15.5322 22.3398 15.5686 22.4124H3.88679V22.4143ZM12.4487 14.6225C12.4487 13.1877 12.4487 11.7528 12.4506 10.3179C12.4506 10.1376 12.4142 10.0455 12.209 10.0455C9.59921 10.0494 6.98749 10.0416 4.37768 10.0455C3.71996 10.0455 3.38247 10.4101 3.38055 11.0746C3.37672 11.7254 3.38439 12.3761 3.38439 13.0269C3.38439 14.7676 3.38055 16.5082 3.38822 18.2489C3.39014 18.8428 3.75831 19.1976 4.3355 19.1976C6.93763 19.1976 9.53977 19.1976 12.1438 19.1976C12.4487 19.1976 12.4506 19.1976 12.4506 18.8801C12.4506 17.4609 12.4506 16.0417 12.4506 14.6225H12.4487Z" fill="black"/>
<path d="M80.9648 22.4133C81.0147 22.3722 81.0722 22.3408 80.961 22.2918C80.5257 22.0997 80.3819 21.7429 80.3972 21.2843C80.4087 20.9314 80.4106 20.5786 80.3934 20.2257C80.3665 19.6436 80.0003 19.2868 79.4269 19.2731C79.0568 19.2652 78.6848 19.2731 78.3147 19.2731C77.7721 19.2731 77.3962 18.9281 77.3425 18.3773C77.3387 18.3302 77.3368 18.2832 77.3368 18.2361C77.3368 15.8212 77.3349 13.4043 77.3368 10.9893C77.3368 10.3914 77.7318 9.9896 78.3282 9.97588C78.6983 9.96607 79.0703 9.97588 79.4404 9.97588C79.9965 9.97588 80.3646 9.64068 80.3934 9.07223C80.4145 8.67235 80.3972 8.27246 80.4011 7.87258C80.4049 7.29433 80.775 6.91797 81.3464 6.91797C83.7568 6.91797 86.1653 6.91797 88.5756 6.91797C89.149 6.91797 89.544 7.31981 89.5536 7.90591C89.5593 8.28227 89.5536 8.65862 89.5555 9.03498C89.5613 9.60932 89.9199 9.97 90.4894 9.97392C90.8441 9.97588 91.2008 9.97196 91.5555 9.97392C92.2056 9.9798 92.6275 10.4287 92.5987 11.0853C92.5066 13.2416 92.5795 15.3978 92.5603 17.554C92.5603 17.6148 92.5699 17.6755 92.6102 17.7363C92.614 17.6657 92.6198 17.5952 92.6198 17.5246C92.6198 15.8957 92.6274 14.2648 92.614 12.6359C92.6102 12.1811 92.6121 11.7263 92.6332 11.2735C92.639 11.1579 92.6274 11.0363 92.6907 10.9305V18.2263C92.6313 18.146 92.66 18.0401 92.6025 17.8872C92.6025 18.0029 92.6025 18.0499 92.6025 18.097C92.6121 18.9163 92.2574 19.279 91.4577 19.2731C91.126 19.2711 90.7943 19.2594 90.4625 19.2731C89.9026 19.2986 89.5555 19.6808 89.5536 20.2473C89.5536 20.6393 89.5536 21.0294 89.5536 21.4215C89.5536 21.6939 89.4405 21.9213 89.2564 22.1134C89.1509 22.2232 89.0052 22.2722 88.8537 22.3428C88.917 22.378 88.9496 22.3976 88.9822 22.4153H80.9648V22.4133ZM80.4701 14.6255C80.4701 15.8408 80.4701 17.0561 80.4701 18.2714C80.4701 18.8771 80.7865 19.1966 81.3867 19.1966C83.7951 19.1966 86.2055 19.1966 88.614 19.1966C88.9937 19.1966 89.2334 18.9987 89.4002 18.6772C89.5018 18.4812 89.4865 18.2655 89.4884 18.0558C89.4884 15.7741 89.4884 13.4925 89.4903 11.2108C89.4903 11.101 89.4903 10.9913 89.4807 10.8815C89.4424 10.4228 89.103 10.0837 88.6523 10.0484C88.5296 10.0386 88.405 10.0406 88.2822 10.0386C86.0579 10.0386 83.8354 10.0366 81.611 10.0366C81.5113 10.0366 81.4097 10.0366 81.31 10.0464C80.7903 10.0935 80.472 10.4502 80.472 10.9775C80.472 12.1929 80.472 13.4082 80.472 14.6235L80.4701 14.6255Z" fill="black"/>
<path d="M35.545 22.4151C35.5699 22.3818 35.6638 22.3544 35.5565 22.3053C35.0464 22.0701 34.8987 21.6428 34.9256 21.1096C34.9409 20.796 34.9352 20.4824 34.9275 20.1687C34.9179 19.6591 34.5708 19.2945 34.0703 19.2768C33.6696 19.2631 33.2669 19.2729 32.8661 19.2729C32.3024 19.2729 31.9188 18.8907 31.9169 18.3144C31.9131 15.625 31.9169 12.9337 31.9131 10.2443C31.9131 10.0424 31.9706 9.96591 32.1777 9.96983C32.7952 9.9816 33.4126 9.97375 34.032 9.97571C34.5823 9.97571 34.9237 9.63072 34.9294 9.06814C34.9313 8.6761 34.9352 8.28406 34.9256 7.89202C34.9102 7.31377 34.5843 6.99621 34.0205 6.99621C33.4107 6.99621 32.8009 6.99033 32.1892 7.00014C31.9936 7.00406 31.915 6.94525 31.915 6.73355C31.9208 4.8204 31.9188 2.90724 31.915 0.992132C31.915 0.805914 31.986 0.747108 32.1624 0.747108C33.0119 0.752988 33.8613 0.754949 34.7108 0.747108C34.9333 0.745148 35.0042 0.819635 35.0042 1.04506C34.9965 2.53481 35.0004 4.02456 35.0042 5.51627C35.0042 5.68092 35.0157 5.84558 35.0349 6.00828C35.1097 6.6081 35.4318 6.90605 36.0378 6.91781C36.6245 6.92957 37.2113 6.92761 37.7981 6.91977C38.0014 6.91585 38.0646 6.98837 38.0627 7.1942C38.0531 8.041 38.0589 8.8878 38.0589 9.73461C38.0589 10.0384 38.0493 10.0502 37.7444 10.0502C37.2036 10.0502 36.6629 10.0463 36.1221 10.0443C35.9361 10.0443 35.7521 10.06 35.5756 10.1247C35.219 10.2521 35.01 10.552 35.0042 10.9793C34.9965 11.6536 35.0004 12.3279 35.0004 13.0023C35.0004 14.7351 35.0004 16.4679 35.0004 18.2027C35.0004 18.4771 35.0502 18.7339 35.2497 18.9377C35.4395 19.1338 35.6696 19.2082 35.94 19.2082C37.5316 19.2024 39.1212 19.2043 40.7128 19.2043C40.9544 19.2043 41.0746 19.3239 41.0733 19.563C41.0695 20.4726 41.0656 21.3821 41.0618 22.2916C41.0618 22.3426 41.079 22.3818 41.1078 22.421H35.5469L35.545 22.4151Z" fill="black"/>
<path d="M18.0239 22.4133C18.0661 22.333 18.0603 22.2467 18.0603 22.1605C18.0603 18.5145 18.0603 14.8685 18.0584 11.2226C18.0584 11.1363 18.0584 11.0501 18.0622 10.9638C18.1025 10.3836 18.4956 9.99352 19.0709 9.97588C19.4026 9.96607 19.7344 9.97195 20.0661 9.97588C20.7622 9.9798 21.0901 9.66616 21.1093 8.95657C21.1208 8.58806 21.1093 8.21954 21.1131 7.85102C21.1169 7.30805 21.4985 6.91797 22.0335 6.91797C24.8063 6.91797 27.5772 6.91797 30.35 6.91993C30.6376 6.91993 30.6415 6.93169 30.6415 7.22964C30.6415 7.98236 30.6415 8.73507 30.6415 9.48779C30.6415 10.117 30.7124 10.0464 30.0815 10.0464C27.4871 10.0464 24.8926 10.0464 22.2981 10.0386C21.9626 10.0386 21.6519 10.0837 21.4065 10.3444C21.2665 10.4934 21.1802 10.658 21.1821 10.8678C21.184 11.2755 21.1821 11.6832 21.1821 12.0909C21.1821 15.3684 21.186 18.6458 21.186 21.9233C21.186 22.0879 21.1783 22.2506 21.1744 22.4153H18.022L18.0239 22.4133Z" fill="black"/>
</svg>
