<svg width="93" height="23" viewBox="0 0 93 23" fill="none" xmlns="http://www.w3.org/2000/svg">
<path d="M45.7863 22.4142C45.8247 22.3906 45.863 22.3652 45.9129 22.3318C45.4239 22.1123 45.2456 21.7242 45.2628 21.2126C45.2743 20.8832 45.2705 20.5539 45.2647 20.2246C45.2551 19.6699 44.8985 19.2935 44.35 19.272C43.98 19.2582 43.608 19.272 43.2379 19.268C42.6051 19.2641 42.2139 18.8917 42.2139 18.2507C42.2062 15.8514 42.2062 13.4502 42.2139 11.0509C42.2158 10.3707 42.6242 9.97868 43.2954 9.9728C43.6425 9.97084 43.9915 9.9728 44.3385 9.9728C44.9081 9.9728 45.2609 9.61604 45.2647 9.02994C45.2686 8.66142 45.2628 8.29291 45.2647 7.92439C45.2686 7.29125 45.6387 6.91489 46.258 6.91489C48.8065 6.91489 51.3568 6.91489 53.9053 6.91489C54.2019 6.91489 54.3495 6.76853 54.3482 6.47581C54.3482 4.67242 54.3482 2.86708 54.3482 1.0637C54.3482 0.750071 54.3521 0.746151 54.657 0.746151C55.5064 0.746151 56.3559 0.752031 57.2054 0.74223C57.4163 0.74027 57.4835 0.804957 57.4835 1.02254C57.4796 8.05768 57.4796 15.0948 57.4796 22.1299C57.4796 22.224 57.47 22.3181 57.4643 22.4122H45.7844L45.7863 22.4142ZM54.3482 14.6283C54.3482 13.1934 54.3463 11.7566 54.3521 10.3217C54.3521 10.1237 54.2984 10.0434 54.0894 10.0434C51.5179 10.0473 48.9445 10.0394 46.3731 10.0434C45.6425 10.0434 45.3338 10.3805 45.3338 11.1176C45.3338 12.7563 45.3338 14.397 45.3357 16.0357C45.3357 16.7884 45.3299 17.5411 45.3414 18.2938C45.3491 18.8525 45.7058 19.1955 46.2523 19.1955C48.8487 19.1955 51.4431 19.1955 54.0395 19.1955C54.3502 19.1955 54.3521 19.1955 54.3521 18.8838C54.3521 17.4647 54.3521 16.0435 54.3521 14.6243L54.3482 14.6283Z" fill="#DBFF00"/>
<path d="M63.3977 22.4143C63.4322 22.3869 63.4686 22.3614 63.5185 22.3222C62.9662 22.1477 62.8052 21.7439 62.8205 21.2088C62.8301 20.8266 62.8627 20.4404 62.7937 20.0601C62.7074 19.5877 62.3929 19.2976 61.9173 19.276C61.5242 19.2604 61.1292 19.2721 60.7361 19.2702C60.1839 19.2682 59.7831 18.8781 59.7735 18.3155C59.7639 17.7588 59.7697 17.2022 59.7697 16.6455C59.7697 14.8186 59.7697 12.9916 59.7697 11.1647C59.7697 10.3336 60.1244 9.97491 60.9413 9.97295C61.2654 9.97295 61.5894 9.97491 61.9135 9.97295C62.4504 9.97099 62.8148 9.60835 62.8224 9.05949C62.8282 8.66745 62.8224 8.27542 62.8243 7.88338C62.8282 7.29728 63.2098 6.91504 63.787 6.91504C67.4322 6.91504 71.0775 6.91504 74.7209 6.91504C75.0335 6.91504 75.0431 6.92288 75.0431 7.22083C75.0431 12.2076 75.0411 17.1963 75.0392 22.183C75.0392 22.2634 75.0392 22.3398 75.0757 22.4124H63.3958L63.3977 22.4143ZM71.9098 14.6343C71.9098 13.223 71.9098 11.8116 71.9098 10.3983C71.9098 10.1618 71.7909 10.0435 71.5531 10.0435C69.0583 10.0435 66.5636 10.0416 64.0688 10.0396C63.9691 10.0396 63.8675 10.0396 63.7678 10.0474C63.2328 10.0886 62.901 10.4356 62.8934 10.9766C62.8876 11.4313 62.8934 11.8861 62.8934 12.3409C62.8934 14.3089 62.8934 16.2789 62.8972 18.2469C62.8972 18.8507 63.25 19.1976 63.8349 19.1976C66.414 19.1976 68.9951 19.1976 71.5742 19.1976C71.7966 19.1976 71.9078 19.0879 71.9078 18.8683C71.9078 17.457 71.9078 16.0456 71.9078 14.6323L71.9098 14.6343Z" fill="#DBFF00"/>
<path d="M3.88654 22.4143C3.9249 22.3908 3.96325 22.3673 4.02269 22.33C3.44742 22.1262 3.29977 21.6851 3.31127 21.1343C3.31703 20.7756 3.35921 20.413 3.27676 20.0562C3.15212 19.5152 2.87215 19.2819 2.3314 19.2721C1.96131 19.2643 1.5893 19.276 1.21921 19.2702C0.674622 19.2623 0.312203 18.9056 0.312203 18.3547C0.308367 15.8614 0.308367 13.366 0.312203 10.8727C0.312203 10.3728 0.712974 9.99647 1.25948 9.97687C1.64491 9.96315 2.03226 9.97491 2.41769 9.97295C2.94118 9.97295 3.30552 9.61031 3.31511 9.07518C3.32086 8.69098 3.31319 8.30678 3.31703 7.92258C3.3247 7.30512 3.71205 6.91504 4.32183 6.91504C7.95945 6.91504 11.5971 6.91504 15.2347 6.91504C15.5242 6.91504 15.5358 6.92876 15.5358 7.21887C15.5358 12.2076 15.5338 17.1943 15.5319 22.183C15.5319 22.2634 15.5319 22.3398 15.5684 22.4124H3.88654V22.4143ZM12.4485 14.6225C12.4485 13.1877 12.4485 11.7528 12.4504 10.3179C12.4504 10.1376 12.414 10.0455 12.2088 10.0455C9.59897 10.0494 6.98725 10.0416 4.37744 10.0455C3.71972 10.0455 3.38222 10.4101 3.38031 11.0746C3.37647 11.7254 3.38414 12.3761 3.38414 13.0269C3.38414 14.7676 3.38031 16.5082 3.38798 18.2489C3.38989 18.8428 3.75807 19.1976 4.33525 19.1976C6.93739 19.1976 9.53953 19.1976 12.1436 19.1976C12.4485 19.1976 12.4504 19.1976 12.4504 18.8801C12.4504 17.4609 12.4504 16.0417 12.4504 14.6225H12.4485Z" fill="#DBFF00"/>
<path d="M80.9648 22.4133C81.0147 22.3722 81.0722 22.3408 80.961 22.2918C80.5257 22.0997 80.3819 21.7429 80.3972 21.2843C80.4087 20.9314 80.4106 20.5786 80.3934 20.2257C80.3665 19.6436 80.0003 19.2868 79.4269 19.2731C79.0568 19.2652 78.6848 19.2731 78.3147 19.2731C77.7721 19.2731 77.3962 18.9281 77.3425 18.3773C77.3387 18.3302 77.3368 18.2832 77.3368 18.2361C77.3368 15.8212 77.3349 13.4043 77.3368 10.9893C77.3368 10.3914 77.7318 9.9896 78.3282 9.97588C78.6983 9.96607 79.0703 9.97588 79.4404 9.97588C79.9965 9.97588 80.3646 9.64068 80.3934 9.07223C80.4145 8.67235 80.3972 8.27246 80.4011 7.87258C80.4049 7.29433 80.775 6.91797 81.3464 6.91797C83.7568 6.91797 86.1653 6.91797 88.5756 6.91797C89.149 6.91797 89.544 7.31981 89.5536 7.90591C89.5593 8.28227 89.5536 8.65862 89.5555 9.03498C89.5613 9.60932 89.9199 9.96999 90.4894 9.97392C90.8441 9.97588 91.2008 9.97196 91.5555 9.97392C92.2056 9.9798 92.6275 10.4287 92.5987 11.0853C92.5066 13.2416 92.5795 15.3978 92.5603 17.554C92.5603 17.6148 92.5699 17.6755 92.6102 17.7363C92.614 17.6657 92.6198 17.5952 92.6198 17.5246C92.6198 15.8957 92.6274 14.2648 92.614 12.6359C92.6102 12.1811 92.6121 11.7263 92.6332 11.2735C92.639 11.1579 92.6274 11.0363 92.6907 10.9305V18.2263C92.6313 18.146 92.66 18.0401 92.6025 17.8872C92.6025 18.0029 92.6025 18.0499 92.6025 18.097C92.6121 18.9163 92.2574 19.279 91.4577 19.2731C91.126 19.2711 90.7943 19.2594 90.4625 19.2731C89.9026 19.2986 89.5555 19.6808 89.5536 20.2473C89.5536 20.6393 89.5536 21.0294 89.5536 21.4215C89.5536 21.6939 89.4405 21.9213 89.2564 22.1134C89.1509 22.2232 89.0052 22.2722 88.8537 22.3428C88.917 22.378 88.9496 22.3976 88.9822 22.4153H80.9648V22.4133ZM80.4701 14.6255C80.4701 15.8408 80.4701 17.0561 80.4701 18.2714C80.4701 18.8771 80.7865 19.1966 81.3867 19.1966C83.7951 19.1966 86.2055 19.1966 88.614 19.1966C88.9937 19.1966 89.2334 18.9987 89.4002 18.6772C89.5018 18.4812 89.4865 18.2655 89.4884 18.0558C89.4884 15.7741 89.4884 13.4925 89.4903 11.2108C89.4903 11.101 89.4903 10.9913 89.4807 10.8815C89.4424 10.4228 89.103 10.0837 88.6523 10.0484C88.5296 10.0386 88.405 10.0406 88.2822 10.0386C86.0579 10.0386 83.8354 10.0366 81.611 10.0366C81.5113 10.0366 81.4097 10.0366 81.31 10.0464C80.7903 10.0935 80.472 10.4502 80.472 10.9775C80.472 12.1929 80.472 13.4082 80.472 14.6235L80.4701 14.6255Z" fill="#DBFF00"/>
<path d="M35.5447 22.4151C35.5696 22.3818 35.6636 22.3544 35.5562 22.3053C35.0461 22.0701 34.8985 21.6428 34.9253 21.1096C34.9407 20.796 34.9349 20.4824 34.9273 20.1687C34.9177 19.6591 34.5706 19.2945 34.0701 19.2768C33.6693 19.2631 33.2666 19.2729 32.8659 19.2729C32.3021 19.2729 31.9186 18.8907 31.9167 18.3144C31.9128 15.625 31.9167 12.9337 31.9128 10.2443C31.9128 10.0424 31.9704 9.96591 32.1775 9.96983C32.7949 9.98159 33.4124 9.97375 34.0318 9.97571C34.5821 9.97571 34.9234 9.63072 34.9292 9.06814C34.9311 8.6761 34.9349 8.28406 34.9253 7.89202C34.91 7.31377 34.584 6.99621 34.0202 6.99621C33.4105 6.99621 32.8007 6.99033 32.189 7.00014C31.9934 7.00406 31.9148 6.94525 31.9148 6.73355C31.9205 4.8204 31.9186 2.90724 31.9148 0.992132C31.9148 0.805914 31.9857 0.747108 32.1621 0.747108C33.0116 0.752988 33.8611 0.754949 34.7106 0.747108C34.933 0.745148 35.004 0.819635 35.004 1.04506C34.9963 2.53481 35.0001 4.02456 35.004 5.51627C35.004 5.68092 35.0155 5.84558 35.0346 6.00828C35.1094 6.6081 35.4316 6.90605 36.0375 6.91781C36.6243 6.92957 37.2111 6.92761 37.7978 6.91977C38.0011 6.91585 38.0644 6.98837 38.0625 7.1942C38.0529 8.041 38.0586 8.8878 38.0586 9.73461C38.0586 10.0384 38.0491 10.0502 37.7442 10.0502C37.2034 10.0502 36.6627 10.0463 36.1219 10.0443C35.9359 10.0443 35.7518 10.06 35.5754 10.1247C35.2187 10.2521 35.0097 10.552 35.004 10.9793C34.9963 11.6536 35.0001 12.3279 35.0001 13.0023C35.0001 14.7351 35.0001 16.4679 35.0001 18.2027C35.0001 18.4771 35.05 18.7339 35.2494 18.9377C35.4392 19.1338 35.6694 19.2082 35.9397 19.2082C37.5313 19.2024 39.121 19.2043 40.7125 19.2043C40.9542 19.2043 41.0743 19.3239 41.0731 19.563C41.0692 20.4726 41.0654 21.3821 41.0615 22.2916C41.0615 22.3426 41.0788 22.3818 41.1076 22.421H35.5466L35.5447 22.4151Z" fill="#DBFF00"/>
<path d="M18.0235 22.4133C18.0657 22.333 18.06 22.2467 18.06 22.1605C18.06 18.5145 18.06 14.8685 18.058 11.2226C18.058 11.1363 18.058 11.0501 18.0619 10.9638C18.1021 10.3836 18.4952 9.99352 19.0705 9.97588C19.4023 9.96607 19.734 9.97195 20.0657 9.97588C20.7618 9.9798 21.0897 9.66616 21.1089 8.95657C21.1204 8.58806 21.1089 8.21954 21.1127 7.85102C21.1166 7.30805 21.4982 6.91797 22.0332 6.91797C24.806 6.91797 27.5768 6.91797 30.3496 6.91993C30.6373 6.91993 30.6411 6.93169 30.6411 7.22964C30.6411 7.98236 30.6411 8.73507 30.6411 9.48779C30.6411 10.117 30.7121 10.0464 30.0812 10.0464C27.4867 10.0464 24.8922 10.0464 22.2978 10.0386C21.9622 10.0386 21.6516 10.0837 21.4061 10.3444C21.2661 10.4934 21.1798 10.658 21.1818 10.8678C21.1837 11.2755 21.1818 11.6832 21.1818 12.0909C21.1818 15.3684 21.1856 18.6458 21.1856 21.9233C21.1856 22.0879 21.1779 22.2506 21.1741 22.4153H18.0216L18.0235 22.4133Z" fill="#DBFF00"/>
</svg>
