<svg width="72" height="18" viewBox="0 0 72 18" fill="none" xmlns="http://www.w3.org/2000/svg">
<path d="M35.4458 17.7296C35.4756 17.7113 35.5054 17.6915 35.5441 17.6656C35.1643 17.4951 35.0258 17.1937 35.0392 16.7963C35.0481 16.5405 35.0452 16.2847 35.0407 16.029C35.0332 15.5981 34.7562 15.3058 34.3303 15.289C34.0428 15.2784 33.7539 15.289 33.4664 15.286C32.9749 15.2829 32.6711 14.9937 32.6711 14.4958C32.6651 12.6323 32.6651 10.7673 32.6711 8.90374C32.6726 8.37544 32.9898 8.07095 33.5111 8.06638C33.7807 8.06486 34.0517 8.06638 34.3213 8.06638C34.7637 8.06638 35.0377 7.78929 35.0407 7.33406C35.0437 7.04784 35.0392 6.76161 35.0407 6.47538C35.0437 5.98362 35.3311 5.6913 35.8122 5.6913C37.7916 5.6913 39.7724 5.6913 41.7518 5.6913C41.9821 5.6913 42.0968 5.57763 42.0958 5.35027C42.0958 3.94958 42.0958 2.54738 42.0958 1.14669C42.0958 0.903096 42.0988 0.900051 42.3356 0.900051C42.9954 0.900051 43.6552 0.904618 44.315 0.897006C44.4788 0.895484 44.531 0.945725 44.531 1.11472C44.528 6.57891 44.528 12.0446 44.528 17.5088C44.528 17.5819 44.5205 17.655 44.5161 17.7281H35.4443L35.4458 17.7296ZM42.0958 11.6823C42.0958 10.5678 42.0943 9.45184 42.0988 8.33738C42.0988 8.18361 42.0571 8.12119 41.8948 8.12119C39.8975 8.12423 37.8988 8.11814 35.9015 8.12119C35.3341 8.12119 35.0943 8.38305 35.0943 8.95551C35.0943 10.2283 35.0943 11.5026 35.0958 12.7754C35.0958 13.3601 35.0913 13.9447 35.1003 14.5293C35.1062 14.9632 35.3832 15.2297 35.8077 15.2297C37.8243 15.2297 39.8394 15.2297 41.856 15.2297C42.0973 15.2297 42.0988 15.2297 42.0988 14.9876C42.0988 13.8853 42.0988 12.7815 42.0988 11.6792L42.0958 11.6823Z" fill="black"/>
<path d="M49.1245 17.7292C49.1513 17.7079 49.1796 17.6881 49.2184 17.6576C48.7894 17.5221 48.6643 17.2085 48.6762 16.7929C48.6837 16.496 48.709 16.1961 48.6554 15.9007C48.5883 15.5338 48.3441 15.3084 47.9747 15.2917C47.6694 15.2795 47.3626 15.2887 47.0573 15.2871C46.6283 15.2856 46.3171 14.9826 46.3096 14.5457C46.3022 14.1133 46.3066 13.6809 46.3066 13.2485C46.3066 11.8296 46.3066 10.4106 46.3066 8.99166C46.3066 8.34613 46.5822 8.06751 47.2166 8.06599C47.4683 8.06599 47.72 8.06751 47.9717 8.06599C48.3888 8.06447 48.6718 7.78281 48.6777 7.35651C48.6822 7.05202 48.6777 6.74752 48.6792 6.44302C48.6822 5.9878 48.9786 5.69092 49.4269 5.69092C52.2582 5.69092 55.0894 5.69092 57.9193 5.69092C58.162 5.69092 58.1695 5.69701 58.1695 5.92843C58.1695 9.80162 58.168 13.6763 58.1665 17.5495C58.1665 17.612 58.1665 17.6713 58.1948 17.7277H49.123L49.1245 17.7292ZM55.7358 11.6865C55.7358 10.5903 55.7358 9.49408 55.7358 8.39637C55.7358 8.21266 55.6435 8.1208 55.4588 8.1208C53.5211 8.1208 51.5835 8.11928 49.6458 8.11776C49.5684 8.11776 49.4894 8.11776 49.412 8.12385C48.9964 8.15582 48.7388 8.4253 48.7328 8.8455C48.7283 9.19872 48.7328 9.55194 48.7328 9.90515C48.7328 11.4337 48.7328 12.9638 48.7358 14.4924C48.7358 14.9613 49.0098 15.2308 49.4641 15.2308C51.4673 15.2308 53.472 15.2308 55.4752 15.2308C55.648 15.2308 55.7343 15.1455 55.7343 14.975C55.7343 13.8788 55.7343 12.7826 55.7343 11.6849L55.7358 11.6865Z" fill="black"/>
<path d="M2.90232 17.7292C2.93211 17.7109 2.9619 17.6927 3.00807 17.6637C2.56126 17.5054 2.44658 17.1628 2.45551 16.735C2.45998 16.4564 2.49275 16.1747 2.4287 15.8976C2.33189 15.4774 2.11445 15.2963 1.69444 15.2887C1.40699 15.2826 1.11806 15.2917 0.830608 15.2871C0.407627 15.281 0.126135 15.0039 0.126135 14.5761C0.123157 12.6395 0.123157 10.7014 0.126135 8.76481C0.126135 8.37658 0.437414 8.08426 0.861885 8.06904C1.16125 8.05838 1.4621 8.06751 1.76146 8.06599C2.16806 8.06599 2.45104 7.78433 2.45849 7.36869C2.46296 7.07029 2.457 6.77188 2.45998 6.47347C2.46594 5.99389 2.76679 5.69092 3.24041 5.69092C6.06575 5.69092 8.89108 5.69092 11.7164 5.69092C11.9413 5.69092 11.9503 5.70158 11.9503 5.9269C11.9503 9.80162 11.9488 13.6748 11.9473 17.5495C11.9473 17.612 11.9473 17.6713 11.9756 17.7277H2.90232V17.7292ZM9.55236 11.6773C9.55236 10.5629 9.55236 9.44841 9.55385 8.33395C9.55385 8.19388 9.52556 8.12232 9.36619 8.12232C7.33916 8.12537 5.31064 8.11928 3.2836 8.12232C2.77275 8.12232 2.51062 8.40551 2.50913 8.92163C2.50615 9.42709 2.51211 9.93256 2.51211 10.438C2.51211 11.79 2.50913 13.142 2.51509 14.4939C2.51658 14.9552 2.80254 15.2308 3.25084 15.2308C5.27191 15.2308 7.29299 15.2308 9.31555 15.2308C9.55236 15.2308 9.55385 15.2308 9.55385 14.9842C9.55385 13.8819 9.55385 12.7796 9.55385 11.6773H9.55236Z" fill="black"/>
<path d="M62.7689 17.7291C62.8076 17.6971 62.8523 17.6727 62.7659 17.6347C62.4278 17.4855 62.3161 17.2084 62.328 16.8521C62.337 16.5781 62.3384 16.304 62.325 16.03C62.3042 15.5778 62.0197 15.3007 61.5744 15.2901C61.2869 15.284 60.998 15.2901 60.7106 15.2901C60.2891 15.2901 59.9971 15.0221 59.9554 14.5943C59.9525 14.5577 59.951 14.5212 59.951 14.4847C59.951 12.609 59.9495 10.7317 59.951 8.85604C59.951 8.39169 60.2578 8.07958 60.721 8.06892C61.0084 8.06131 61.2974 8.06892 61.5848 8.06892C62.0167 8.06892 62.3027 7.80858 62.325 7.36706C62.3414 7.05647 62.328 6.74588 62.331 6.4353C62.334 5.98616 62.6214 5.69385 63.0652 5.69385C64.9374 5.69385 66.808 5.69385 68.6802 5.69385C69.1255 5.69385 69.4323 6.00596 69.4398 6.46118C69.4442 6.7535 69.4398 7.04581 69.4412 7.33813C69.4457 7.78422 69.7242 8.06435 70.1666 8.0674C70.4421 8.06892 70.7191 8.06588 70.9947 8.0674C71.4996 8.07197 71.8272 8.42061 71.8049 8.93065C71.7334 10.6054 71.79 12.2801 71.7751 13.9548C71.7751 14.002 71.7825 14.0492 71.8138 14.0964C71.8168 14.0416 71.8213 13.9868 71.8213 13.932C71.8213 12.6668 71.8272 11.4001 71.8168 10.1349C71.8138 9.78171 71.8153 9.4285 71.8317 9.0768C71.8362 8.98698 71.8272 8.89258 71.8764 8.81037V14.4771C71.8302 14.4146 71.8525 14.3324 71.8079 14.2137C71.8079 14.3035 71.8079 14.34 71.8079 14.3766C71.8153 15.013 71.5398 15.2946 70.9187 15.2901C70.661 15.2885 70.4034 15.2794 70.1457 15.2901C69.7108 15.3098 69.4412 15.6067 69.4398 16.0467C69.4398 16.3512 69.4398 16.6542 69.4398 16.9587C69.4398 17.1703 69.3519 17.3469 69.2089 17.4961C69.127 17.5814 69.0138 17.6195 68.8961 17.6743C68.9453 17.7017 68.9706 17.7169 68.9959 17.7306H62.7689V17.7291ZM62.3846 11.6802C62.3846 12.6242 62.3846 13.5681 62.3846 14.5121C62.3846 14.9825 62.6304 15.2307 63.0965 15.2307C64.9672 15.2307 66.8393 15.2307 68.71 15.2307C69.0049 15.2307 69.191 15.0769 69.3206 14.8272C69.3995 14.675 69.3876 14.5075 69.3891 14.3446C69.3891 12.5724 69.3891 10.8003 69.3906 9.02809C69.3906 8.94283 69.3906 8.85757 69.3832 8.77231C69.3534 8.41605 69.0898 8.15266 68.7398 8.12525C68.6444 8.11764 68.5476 8.11916 68.4523 8.11764C66.7246 8.11764 64.9985 8.11612 63.2708 8.11612C63.1933 8.11612 63.1144 8.11612 63.037 8.12373C62.6333 8.16027 62.3861 8.43736 62.3861 8.84691C62.3861 9.79085 62.3861 10.7348 62.3861 11.6787L62.3846 11.6802Z" fill="black"/>
<path d="M27.4912 17.7299C27.5105 17.7041 27.5835 17.6827 27.5001 17.6447C27.1039 17.462 26.9892 17.1301 27.0101 16.716C27.022 16.4724 27.0175 16.2288 27.0116 15.9852C27.0041 15.5893 26.7346 15.3062 26.3458 15.2924C26.0346 15.2818 25.7218 15.2894 25.4105 15.2894C24.9726 15.2894 24.6748 14.9925 24.6733 14.5449C24.6703 12.4561 24.6733 10.3657 24.6703 8.27685C24.6703 8.12003 24.715 8.06066 24.8758 8.0637C25.3554 8.07284 25.835 8.06675 26.316 8.06827C26.7435 8.06827 27.0086 7.80031 27.0131 7.36336C27.0146 7.05886 27.0175 6.75437 27.0101 6.44987C26.9982 6.00074 26.745 5.7541 26.3071 5.7541C25.8335 5.7541 25.3599 5.74953 24.8848 5.75714C24.7328 5.76018 24.6718 5.71451 24.6718 5.55008C24.6762 4.06414 24.6748 2.5782 24.6718 1.09073C24.6718 0.946094 24.7269 0.90042 24.8639 0.90042C25.5237 0.904987 26.1835 0.90651 26.8433 0.90042C27.016 0.898897 27.0712 0.956752 27.0712 1.13184C27.0652 2.28892 27.0682 3.44601 27.0712 4.60462C27.0712 4.73251 27.0801 4.8604 27.095 4.98676C27.1531 5.45264 27.4033 5.68406 27.8739 5.6932C28.3297 5.70233 28.7854 5.70081 29.2412 5.69472C29.399 5.69167 29.4482 5.74801 29.4467 5.90787C29.4393 6.56558 29.4437 7.22329 29.4437 7.881C29.4437 8.11699 29.4363 8.12612 29.1995 8.12612C28.7795 8.12612 28.3595 8.12308 27.9395 8.12156C27.795 8.12156 27.652 8.13374 27.515 8.18398C27.238 8.28294 27.0756 8.51588 27.0712 8.84778C27.0652 9.37151 27.0682 9.89525 27.0682 10.419C27.0682 11.7649 27.0682 13.1107 27.0682 14.4581C27.0682 14.6713 27.1069 14.8707 27.2618 15.0291C27.4092 15.1813 27.588 15.2392 27.798 15.2392C29.0341 15.2346 30.2688 15.2361 31.505 15.2361C31.6927 15.2361 31.786 15.329 31.785 15.5147C31.782 16.2212 31.7791 16.9276 31.7761 17.634C31.7761 17.6736 31.7895 17.7041 31.8118 17.7345H27.4926L27.4912 17.7299Z" fill="black"/>
<path d="M13.8825 17.7291C13.9152 17.6667 13.9108 17.5997 13.9108 17.5327C13.9108 14.7009 13.9108 11.869 13.9093 9.03722C13.9093 8.97023 13.9093 8.90324 13.9123 8.83625C13.9435 8.3856 14.2489 8.08262 14.6957 8.06892C14.9533 8.06131 15.211 8.06588 15.4687 8.06892C16.0093 8.07197 16.264 7.82837 16.2789 7.27723C16.2878 6.991 16.2789 6.70478 16.2818 6.41855C16.2848 5.99682 16.5812 5.69385 16.9967 5.69385C19.1504 5.69385 21.3025 5.69385 23.4561 5.69537C23.6796 5.69537 23.6825 5.70451 23.6825 5.93592C23.6825 6.52056 23.6825 7.10519 23.6825 7.68982C23.6825 8.17854 23.7376 8.12373 23.2476 8.12373C21.2325 8.12373 19.2174 8.12373 17.2023 8.11764C16.9416 8.11764 16.7004 8.15266 16.5097 8.35515C16.401 8.47086 16.334 8.59875 16.3355 8.76165C16.337 9.07833 16.3355 9.395 16.3355 9.71168C16.3355 12.2573 16.3384 14.8029 16.3384 17.3485C16.3384 17.4763 16.3325 17.6027 16.3295 17.7306H13.881L13.8825 17.7291Z" fill="black"/>
</svg>
