<svg width="39" height="39" viewBox="0 0 39 39" fill="none" xmlns="http://www.w3.org/2000/svg">
<rect x="0.75477" y="0.900766" width="37.2174" height="37.2174" rx="18.6087" fill="black" stroke="white" stroke-width="0.75954" stroke-linejoin="round"/>
<path d="M20.5905 6.47821C21.0705 6.68229 21.4034 6.87209 21.8691 7.13739C22.6964 7.60881 22.6147 7.65371 22.9374 7.78636C22.9864 7.80677 23.1171 7.85779 23.2417 7.98228C23.2948 8.03534 23.4623 8.20473 23.4746 8.46187C23.4868 8.70472 23.3541 8.93125 23.1866 9.05166C22.9864 9.19451 22.7352 9.18431 22.2736 9.07207C21.7016 8.93329 21.3279 8.76391 20.7703 8.52513C19.7878 8.10473 19.5549 8.0333 19.2302 8.01289C18.9279 7.99453 18.4622 7.96799 18.2089 8.26391C17.9699 8.54554 18.0047 9.02309 18.0128 9.14962C18.0312 9.39451 18.0966 9.48227 18.07 9.75369C18.0578 9.88839 18.0251 10.0455 17.9904 10.2149C17.9372 10.468 17.9291 10.4537 17.9189 10.5333C17.8862 10.7925 17.9863 10.9455 18.1047 11.2965C18.1578 11.4557 18.1129 11.3516 18.2722 11.9373C18.309 12.0761 18.4091 12.4435 18.6338 13.1863C18.8094 13.7659 18.8196 13.7781 18.9463 14.2067C19.0198 14.4496 19.0892 14.6924 19.2853 15.3924C19.5427 16.3149 19.8246 17.2291 20.0962 18.1475C20.1126 18.2026 20.2494 18.6393 20.3209 18.7434C20.3679 18.8128 20.4312 18.874 20.4802 18.9414C20.5374 19.0189 20.9296 19.872 20.9888 20.0169C21.0337 20.125 21.2217 20.5618 21.2686 20.674C21.3585 20.8862 21.4218 21.0413 21.4422 21.0964C21.7323 21.8046 21.9672 22.3087 22.2266 22.9454C22.2552 23.0148 22.4308 23.4903 22.7822 24.4413C23.013 25.0617 23.2131 25.6107 23.2969 26.0474C23.305 26.0944 23.3377 26.2658 23.3908 26.5005C23.4439 26.7331 23.4909 26.9066 23.5195 27.0086C23.7462 27.8352 23.8586 28.2494 23.9995 28.7005C24.0281 28.7943 24.1731 29.2474 24.3835 29.8433C24.4591 30.0576 24.4979 30.1637 24.5326 30.2555C24.7879 30.9229 25.1413 31.6249 25.3415 32.1392C25.3517 32.1637 25.4027 32.3392 25.4089 32.3698C25.4477 32.5351 25.4599 32.7045 25.4089 32.8678C25.3762 32.9759 25.319 33.0718 25.2271 33.1412C24.888 33.3963 24.2344 33.7535 23.446 33.6086C23.2213 33.5678 23.0742 33.5392 22.921 33.4229C22.6678 33.229 22.5759 32.9269 22.4104 32.3739C22.3716 32.2412 22.343 32.127 22.2858 31.8984C22.2041 31.5678 22.2021 31.5249 22.1326 31.2392C21.9958 30.6739 21.8732 30.2739 21.8242 30.1474C21.7874 30.0515 21.7119 29.8147 21.7016 29.7943C21.6485 29.6841 20.997 27.7454 20.9929 27.729C20.7355 26.9311 20.4986 26.3576 20.4353 26.1903C20.1943 25.5495 20.229 25.6699 20.1085 25.3331C19.8062 24.4944 19.6366 23.8719 19.5672 23.2168C19.5672 23.2025 19.5672 23.2025 19.5652 23.1883C19.5366 23.1107 19.2751 21.8699 19.2649 21.8352C19.2404 21.7536 19.224 21.6373 19.1832 21.4066C19.0259 20.5495 19.0096 20.1883 18.8809 19.3495C18.7277 18.3516 18.5725 17.825 18.4663 17.5271C18.4152 17.3842 18.3805 17.2904 18.3478 17.2067C18.1742 16.7536 17.9618 16.1271 17.4123 13.9863C17.2387 13.3088 16.9527 12.6496 16.8853 11.9516C16.8731 11.8292 16.8547 11.5741 16.7056 11.2945C16.6259 11.1476 16.5504 11.07 16.2419 10.7272C15.7762 10.2108 15.813 10.2394 15.7762 10.2088C15.6884 10.1374 15.2411 9.77002 14.6365 9.80267C14.3628 9.81696 14.1688 9.90675 13.9666 10.0047C13.5417 10.2088 13.1332 10.5149 12.933 10.8027C12.8963 10.8557 12.7717 10.972 12.7635 10.9761C12.741 10.9904 12.4163 11.1598 12.2774 11.2312C12.1405 11.3027 12.0588 11.3088 11.971 11.3067C11.9281 11.3067 11.7647 11.2986 11.5625 11.1435C11.2602 10.9129 11.1193 10.5476 10.8741 9.94757C10.5412 9.14349 10.5004 9.07819 10.5473 8.93533C10.6883 8.49656 11.3398 8.32718 11.5196 8.28024C11.6483 8.24758 11.9587 8.20881 12.5797 8.11697C12.7165 8.09656 12.8554 8.06595 12.9861 8.01901C13.1577 7.95779 13.3272 7.88432 13.458 7.75371C13.5172 7.69453 13.5764 7.6231 13.6867 7.4782C13.8603 7.24759 14.0932 6.93331 14.2484 6.78637C14.3015 6.73535 14.371 6.68229 15.1185 6.42107C15.6925 6.22107 16.1684 6.0925 16.6668 5.95577C16.7832 5.92312 16.9037 5.90271 17.0222 5.8823C17.1141 5.86597 17.8167 5.8374 17.8698 5.8374C17.878 5.8374 18.0394 5.83944 18.1129 5.84761C18.2845 5.86597 18.7236 5.89659 19.316 6.04352C19.4773 6.08434 19.9675 6.21291 20.5885 6.47617L20.5905 6.47821Z" fill="white"/>
</svg>
