<svg width="27" height="21" viewBox="0 0 27 21" fill="none" xmlns="http://www.w3.org/2000/svg">
<path d="M22.1636 2.5796C20.5701 1.84847 18.8614 1.30981 17.0749 1.00129C17.0424 0.99534 17.0099 1.01022 16.9931 1.03998C16.7733 1.43083 16.5299 1.94072 16.3595 2.3415C14.4379 2.05382 12.5262 2.05382 10.6441 2.3415C10.4736 1.93182 10.2213 1.43083 10.0006 1.03998C9.98384 1.01121 9.95134 0.996333 9.9188 1.00129C8.13324 1.30882 6.42454 1.84748 4.83014 2.5796C4.81634 2.58555 4.80451 2.59548 4.79666 2.60836C1.55562 7.45041 0.66776 12.1734 1.10331 16.8379C1.10528 16.8607 1.11809 16.8826 1.13583 16.8964C3.27418 18.4668 5.34553 19.4201 7.37842 20.052C7.41095 20.062 7.44542 20.0501 7.46613 20.0233C7.94701 19.3666 8.37567 18.6741 8.7432 17.946C8.76489 17.9033 8.74419 17.8527 8.69986 17.8359C8.01993 17.5779 7.3725 17.2635 6.74972 16.9064C6.70046 16.8776 6.69651 16.8071 6.74183 16.7734C6.87289 16.6752 7.00398 16.573 7.12912 16.4698C7.15176 16.451 7.18331 16.447 7.20993 16.4589C11.3013 18.3269 15.7308 18.3269 19.7739 16.4589C19.8005 16.446 19.8321 16.45 19.8557 16.4689C19.9809 16.572 20.1119 16.6752 20.244 16.7734C20.2893 16.8071 20.2863 16.8776 20.2371 16.9064C19.6143 17.2704 18.9669 17.5779 18.2859 17.8349C18.2416 17.8517 18.2219 17.9033 18.2436 17.946C18.619 18.6731 19.0477 19.3655 19.5197 20.0223C19.5394 20.0501 19.5749 20.062 19.6074 20.052C21.6501 19.4201 23.7215 18.4668 25.8598 16.8964C25.8786 16.8826 25.8904 16.8617 25.8924 16.8389C26.4136 11.4463 25.0193 6.76196 22.1961 2.60935C22.1892 2.59548 22.1774 2.58555 22.1636 2.5796ZM9.35419 13.9977C8.1224 13.9977 7.10743 12.8668 7.10743 11.478C7.10743 10.0892 8.10271 8.95829 9.35419 8.95829C10.6155 8.95829 11.6206 10.0991 11.6009 11.478C11.6009 12.8668 10.6056 13.9977 9.35419 13.9977ZM17.6612 13.9977C16.4294 13.9977 15.4145 12.8668 15.4145 11.478C15.4145 10.0892 16.4097 8.95829 17.6612 8.95829C18.9225 8.95829 19.9276 10.0991 19.908 11.478C19.908 12.8668 18.9225 13.9977 17.6612 13.9977Z" stroke="white"/>
</svg>
