<svg width="30" height="30" viewBox="0 0 30 30" fill="none" xmlns="http://www.w3.org/2000/svg">
<g id="Discord">
<path id="Vector" d="M21.9308 8.4629C20.6561 7.87799 19.2892 7.44707 17.8599 7.20025C17.8339 7.19549 17.8079 7.20739 17.7945 7.2312C17.6187 7.54388 17.4239 7.9518 17.2876 8.27242C15.7503 8.04228 14.221 8.04228 12.7153 8.27242C12.5789 7.94467 12.3771 7.54388 12.2005 7.2312C12.1871 7.20819 12.1611 7.19629 12.135 7.20025C10.7066 7.44628 9.33963 7.87721 8.06411 8.4629C8.05307 8.46766 8.04361 8.4756 8.03732 8.48591C5.44449 12.3595 4.73421 16.138 5.08265 19.8695C5.08423 19.8878 5.09447 19.9053 5.10867 19.9164C6.81934 21.1726 8.47642 21.9353 10.1027 22.4408C10.1288 22.4488 10.1563 22.4393 10.1729 22.4178C10.5576 21.8925 10.9005 21.3385 11.1946 20.756C11.2119 20.7219 11.1954 20.6814 11.1599 20.6679C10.6159 20.4616 10.098 20.21 9.59978 19.9243C9.56037 19.9013 9.55721 19.8449 9.59347 19.8179C9.69831 19.7394 9.80318 19.6576 9.9033 19.5751C9.92141 19.56 9.94665 19.5568 9.96794 19.5664C13.2411 21.0608 16.7846 21.0608 20.0191 19.5664C20.0404 19.5561 20.0657 19.5592 20.0846 19.5743C20.1847 19.6568 20.2896 19.7394 20.3952 19.8179C20.4314 19.8449 20.4291 19.9013 20.3897 19.9243C19.8914 20.2155 19.3735 20.4616 18.8288 20.6671C18.7933 20.6806 18.7775 20.7219 18.7949 20.756C19.0952 21.3377 19.4381 21.8917 19.8157 22.417C19.8315 22.4393 19.8599 22.4488 19.8859 22.4408C21.5201 21.9353 23.1772 21.1726 24.8879 19.9164C24.9028 19.9053 24.9123 19.8886 24.9139 19.8703C25.3309 15.5562 24.2154 11.8088 21.9568 8.4867C21.9513 8.4756 21.9419 8.46766 21.9308 8.4629ZM11.6834 17.5974C10.6979 17.5974 9.88594 16.6927 9.88594 15.5816C9.88594 14.4706 10.6822 13.5659 11.6834 13.5659C12.6924 13.5659 13.4965 14.4785 13.4807 15.5816C13.4807 16.6927 12.6845 17.5974 11.6834 17.5974ZM18.329 17.5974C17.3435 17.5974 16.5316 16.6927 16.5316 15.5816C16.5316 14.4706 17.3278 13.5659 18.329 13.5659C19.338 13.5659 20.1421 14.4785 20.1264 15.5816C20.1264 16.6927 19.338 17.5974 18.329 17.5974Z" stroke="black"/>
</g>
</svg>
