<svg width="20" height="20" viewBox="0 0 20 20" fill="none" xmlns="http://www.w3.org/2000/svg">
<path d="M13.6457 2.7082C14.6118 2.71109 15.5375 3.09616 16.2207 3.77931C16.9038 4.46246 17.2889 5.38818 17.2918 6.3543V13.6457C17.2889 14.6118 16.9038 15.5375 16.2207 16.2207C15.5375 16.9038 14.6118 17.2889 13.6457 17.2918H6.3543C5.38818 17.2889 4.46246 16.9038 3.77931 16.2207C3.09616 15.5375 2.71109 14.6118 2.7082 13.6457V6.3543C2.71109 5.38818 3.09616 4.46246 3.77931 3.77931C4.46246 3.09616 5.38818 2.71109 6.3543 2.7082H13.6457ZM13.6457 1.25H6.3543C3.54687 1.25 1.25 3.54687 1.25 6.3543V13.6457C1.25 16.4531 3.54687 18.75 6.3543 18.75H13.6457C16.4531 18.75 18.75 16.4531 18.75 13.6457V6.3543C18.75 3.54687 16.4531 1.25 13.6457 1.25Z" fill="white"/>
<path d="M14.7393 6.35352C14.5229 6.35352 14.3115 6.28937 14.1316 6.16919C13.9517 6.049 13.8115 5.87818 13.7288 5.67833C13.646 5.47847 13.6243 5.25855 13.6665 5.04639C13.7087 4.83422 13.8129 4.63933 13.9659 4.48637C14.1188 4.3334 14.3137 4.22923 14.5259 4.18703C14.738 4.14483 14.958 4.16649 15.1578 4.24927C15.3577 4.33206 15.5285 4.47224 15.6487 4.65211C15.7689 4.83198 15.833 5.04344 15.833 5.25977C15.8333 5.40349 15.8052 5.54585 15.7504 5.67869C15.6955 5.81153 15.615 5.93223 15.5133 6.03385C15.4117 6.13548 15.291 6.21603 15.1582 6.27089C15.0253 6.32575 14.883 6.35382 14.7393 6.35352Z" fill="white"/>
<path d="M10 7.0832C10.5769 7.0832 11.1408 7.25427 11.6205 7.57477C12.1002 7.89527 12.474 8.35082 12.6948 8.88379C12.9155 9.41676 12.9733 10.0032 12.8608 10.569C12.7482 11.1348 12.4704 11.6546 12.0625 12.0625C11.6546 12.4704 11.1348 12.7482 10.569 12.8608C10.0032 12.9733 9.41677 12.9155 8.88379 12.6948C8.35082 12.474 7.89528 12.1001 7.57477 11.6205C7.25427 11.1408 7.0832 10.5769 7.0832 10C7.08403 9.22667 7.3916 8.48525 7.93843 7.93843C8.48525 7.3916 9.22667 7.08403 10 7.0832ZM10 5.625C9.13471 5.625 8.28885 5.88159 7.56938 6.36232C6.84992 6.84305 6.28916 7.52633 5.95803 8.32576C5.6269 9.12519 5.54026 10.0049 5.70907 10.8535C5.87788 11.7022 6.29456 12.4817 6.90641 13.0936C7.51826 13.7054 8.29781 14.1221 9.14648 14.2909C9.99515 14.4597 10.8748 14.3731 11.6742 14.042C12.4737 13.7108 13.157 13.1501 13.6377 12.4306C14.1184 11.7112 14.375 10.8653 14.375 10C14.375 8.83968 13.9141 7.72688 13.0936 6.90641C12.2731 6.08594 11.1603 5.625 10 5.625Z" fill="white"/>
</svg>
