<svg width="12" height="12" viewBox="0 0 12 12" fill="none" xmlns="http://www.w3.org/2000/svg">
<g clip-path="url(#clip0_242_868)">
<path d="M3.25022 0.375H8.74978C9.51205 0.375917 10.2428 0.679134 10.7819 1.21815C11.3209 1.75721 11.6241 2.48808 11.625 3.25042V8.74958C11.6241 9.51192 11.3209 10.2428 10.7819 10.7819C10.2428 11.3209 9.51192 11.6241 8.74958 11.625H3.25042C2.48808 11.6241 1.75721 11.3209 1.21815 10.7819C0.679134 10.2428 0.375917 9.51205 0.375 8.74978V3.25022C0.375917 2.48795 0.679134 1.75716 1.21815 1.21815C1.75716 0.679134 2.48795 0.375917 3.25022 0.375Z" stroke="black" stroke-width="0.75"/>
<circle cx="6.01661" cy="6.18946" r="2.44239" stroke="black" stroke-width="0.75"/>
</g>
<defs>
<clipPath id="clip0_242_868">
<rect width="12" height="12" fill="white"/>
</clipPath>
</defs>
</svg>
