<svg width="18" height="18" viewBox="0 0 18 18" fill="none" xmlns="http://www.w3.org/2000/svg">
<path d="M15.125 4.125V4.12443C15.1246 3.79318 14.9929 3.4756 14.7586 3.24137C14.5244 3.00714 14.2068 2.87538 13.8756 2.875H13.875C13.6278 2.875 13.3861 2.94831 13.1805 3.08566C12.975 3.22301 12.8148 3.41824 12.7202 3.64664C12.6255 3.87505 12.6008 4.12639 12.649 4.36886C12.6973 4.61134 12.8163 4.83407 12.9911 5.00888C13.1659 5.1837 13.3887 5.30275 13.6311 5.35098C13.8736 5.39921 14.1249 5.37446 14.3534 5.27985C14.5818 5.18524 14.777 5.02503 14.9143 4.81946C15.0517 4.6139 15.125 4.37223 15.125 4.125ZM13.7361 3.91713L13.4583 3.5014L13.7361 3.91713C13.7771 3.88972 13.8254 3.87506 13.8747 3.875C13.941 3.87514 14.0046 3.90156 14.0515 3.94847C14.0985 3.99545 14.1249 4.05914 14.125 4.12557L14.625 4.125H14.125C14.125 4.17445 14.1103 4.22278 14.0829 4.26389C14.0554 4.305 14.0164 4.33705 13.9707 4.35597C13.925 4.37489 13.8747 4.37984 13.8262 4.3702C13.7777 4.36055 13.7332 4.33674 13.6982 4.30178C13.6633 4.26681 13.6395 4.22227 13.6298 4.17377C13.6202 4.12528 13.6251 4.07501 13.644 4.02933C13.663 3.98365 13.695 3.9446 13.7361 3.91713ZM1.78302 1.78302C2.60325 0.962798 3.71532 0.501388 4.87529 0.5H13.1247C14.2847 0.501388 15.3967 0.962798 16.217 1.78302C17.0373 2.60332 17.4987 3.7155 17.5 4.87557V13.1244C17.4987 14.2845 17.0373 15.3967 16.217 16.217C15.3967 17.0373 14.2845 17.4987 13.1244 17.5H4.87557C3.7155 17.4987 2.60332 17.0373 1.78303 16.217C0.962798 15.3967 0.501388 14.2847 0.5 13.1247V4.87529C0.501388 3.71532 0.962798 2.60325 1.78302 1.78302Z" stroke="white"/>
<circle cx="9.02492" cy="9.28468" r="3.72609" stroke="white"/>
</svg>
