<svg width="9" height="10" viewBox="0 0 9 10" fill="none" xmlns="http://www.w3.org/2000/svg">
<path fill-rule="evenodd" clip-rule="evenodd" d="M8.146 4.63126C8.146 5.13689 7.7361 5.54679 7.23046 5.54679L6.35951 5.54679V5.54679C5.58504 5.54679 4.95721 6.17463 4.95721 6.9491L4.95721 8.11466C4.95721 8.6203 4.54731 9.03019 4.04168 9.03019V9.03019C3.53604 9.03019 3.12614 8.6203 3.12614 8.11466L3.12614 6.8508C3.12614 6.13062 2.54232 5.54679 1.82213 5.54679V5.54679L0.915516 5.54679C0.409881 5.54679 -1.64369e-05 5.13466 -1.64148e-05 4.62902V4.62902C-1.63928e-05 4.12585 0.407886 3.71573 0.911058 3.71573V3.71573C1.41423 3.71573 1.82213 3.30782 1.82213 2.80465L1.82213 1.86233C1.82213 1.35669 2.23203 0.946795 2.73767 0.946795V0.946795C3.2433 0.946795 3.6532 1.35669 3.6532 1.86233L3.6532 3.2781C3.6532 3.51979 3.84913 3.71573 4.09082 3.71573V3.71573C4.33252 3.71573 4.52845 3.51979 4.52845 3.2781L4.52845 0.915533C4.52845 0.409898 4.93835 -1.40211e-07 5.44398 -1.18109e-07V-1.18109e-07C5.94962 -9.60066e-08 6.35951 0.409897 6.35951 0.915532L6.35951 2.82248C6.35951 3.31581 6.75943 3.71573 7.25275 3.71573V3.71573C7.74608 3.71573 8.146 4.11564 8.146 4.60897L8.146 4.63126Z" fill="#51DC67"/>
</svg>
