<svg width="30" height="30" viewBox="0 0 30 30" fill="none" xmlns="http://www.w3.org/2000/svg">
<path fill-rule="evenodd" clip-rule="evenodd" d="M25.785 8.8802C25.7933 8.8802 25.8 8.87348 25.8 8.86519L25.8 5.7002C25.8 4.04334 24.4569 2.7002 22.8 2.7002L17.37 2.7002C15.7132 2.7002 14.37 4.04334 14.37 5.7002L14.37 6.2402C14.37 7.69823 15.552 8.8802 17.01 8.8802C18.4681 8.8802 19.65 10.0622 19.65 11.5202L19.65 17.8802C19.65 19.537 18.3069 20.8802 16.65 20.8802L12.27 20.8802C11.4582 20.8802 10.8 20.2221 10.8 19.4102C10.8 18.5983 11.4582 17.9402 12.27 17.9402L13.86 17.9402C15.5169 17.9402 16.86 16.597 16.86 14.9402L16.86 14.7902C16.86 13.1333 15.4869 11.7902 13.83 11.7902C12.1732 11.7902 10.8 10.447 10.8 8.79019L10.8 5.73019C10.8 4.07334 9.4569 2.73019 7.80004 2.73019L7.65005 2.73019C5.99319 2.73019 4.65005 4.07334 4.65005 5.73019L4.65005 24.0602C4.65005 25.717 5.99319 27.0602 7.65005 27.0602L10.785 27.0602C10.7933 27.0602 10.8 27.0535 10.8 27.0452C10.8 27.0369 10.8068 27.0302 10.815 27.0302L19.635 27.0302C19.6433 27.0302 19.65 27.0369 19.65 27.0452C19.65 27.0535 19.6568 27.0602 19.665 27.0602L22.77 27.0602C24.4269 27.0602 25.77 25.717 25.77 24.0602L25.77 8.8952C25.77 8.88691 25.7768 8.8802 25.785 8.8802Z" fill="#CDCDCD"/>
</svg>
