<svg width="31" height="32" viewBox="0 0 31 32" fill="none" xmlns="http://www.w3.org/2000/svg">
<g id="S_4">
<path id="Union" fill-rule="evenodd" clip-rule="evenodd" d="M28.75 16.3302C28.75 17.987 27.4069 19.3302 25.75 19.3302L22.75 19.3302L21.04 19.3302C19.3831 19.3302 18.04 20.6733 18.04 22.3302L18.04 28.0302C18.04 29.687 16.6968 31.0302 15.04 31.0302L14.89 31.0302C13.2331 31.0302 11.89 29.6871 11.89 28.0302L11.89 22.3302C11.89 20.6733 10.5469 19.3302 8.88999 19.3302L7.50999 19.3302L4.39 19.3302C2.73315 19.3302 1.39 17.987 1.39 16.3302L1.39 16.1802C1.39 14.5233 2.73315 13.1802 4.39 13.1802L4.50999 13.1802C6.16685 13.1802 7.50999 11.837 7.50999 10.1802L7.50999 6.88019C7.50999 5.22334 8.85314 3.88019 10.51 3.88019L10.66 3.88019C12.3168 3.88019 13.66 5.22334 13.66 6.88019L13.66 11.7102C13.66 12.5221 14.3181 13.1802 15.13 13.1802C15.9419 13.1802 16.6 12.5221 16.6 11.7102L16.6 3.70019C16.6 2.04334 17.9431 0.700195 19.6 0.700195L19.75 0.700195C21.4069 0.700195 22.75 2.04334 22.75 3.70019L22.75 10.1802C22.75 11.837 24.0931 13.1802 25.75 13.1802C27.4069 13.1802 28.75 14.5233 28.75 16.1802L28.75 16.3302Z" fill="#F0F0F0"/>
</g>
</svg>
