<svg width="31" height="30" viewBox="0 0 31 30" fill="none" xmlns="http://www.w3.org/2000/svg">
<g id="S_3">
<path id="Union" fill-rule="evenodd" clip-rule="evenodd" d="M5.27007 6.71426C5.27007 4.49735 7.09674 2.7002 9.31365 2.7002C10.8238 2.7002 12.5498 2.7002 14.06 2.7002H17C19.2202 2.7002 21.02 4.50001 21.02 6.7202C21.02 8.94038 19.2202 10.7402 17 10.7402H14.06C13.6606 10.7402 13.3048 11.1005 13.3097 11.4999C13.3099 11.5166 13.31 11.5334 13.31 11.5502V14.5502C13.31 15.0296 14.1251 15.7242 14.5986 15.6495C14.8043 15.617 15.0152 15.6002 15.23 15.6002H20.81C23.0302 15.6002 24.83 17.4 24.83 19.6202C24.83 21.8404 23.0302 23.6402 20.81 23.6402H15.23C14.6871 23.6402 13.9668 24.42 14.0065 24.9615C14.0136 25.0582 14.0172 25.1558 14.0172 25.2543C14.0172 27.4712 12.1905 29.2683 9.9736 29.2683C7.75669 29.2683 5.93002 27.4712 5.93002 25.2543C5.93002 23.0374 7.75669 21.2402 9.9736 21.2402C10.5233 21.2402 11.2577 20.4504 11.2197 19.902C11.2133 19.8089 11.21 19.7149 11.21 19.6202C11.21 19.1408 10.395 18.4462 9.9214 18.5209C9.71571 18.5533 9.50483 18.5702 9.29002 18.5702C7.06984 18.5702 5.27002 16.7704 5.27002 14.5502V11.5502C5.27002 10.0196 5.27007 8.24487 5.27007 6.71426Z" fill="black"/>
</g>
</svg>
