<svg width="30" height="30" viewBox="0 0 30 30" fill="none" xmlns="http://www.w3.org/2000/svg">
<g id="S_3">
<path id="Union" fill-rule="evenodd" clip-rule="evenodd" d="M4.77007 6.71426C4.77007 4.49735 6.59674 2.7002 8.81365 2.7002C10.3238 2.7002 12.0498 2.7002 13.56 2.7002H16.5C18.7202 2.7002 20.52 4.50001 20.52 6.7202C20.52 8.94038 18.7202 10.7402 16.5 10.7402H13.56C13.1606 10.7402 12.8048 11.1005 12.8097 11.4999C12.8099 11.5166 12.81 11.5334 12.81 11.5502V14.5502C12.81 15.0296 13.6251 15.7242 14.0986 15.6495C14.3043 15.617 14.5152 15.6002 14.73 15.6002H20.31C22.5302 15.6002 24.33 17.4 24.33 19.6202C24.33 21.8404 22.5302 23.6402 20.31 23.6402H14.73C14.1871 23.6402 13.4668 24.42 13.5065 24.9615C13.5136 25.0582 13.5172 25.1558 13.5172 25.2543C13.5172 27.4712 11.6905 29.2683 9.4736 29.2683C7.25669 29.2683 5.43002 27.4712 5.43002 25.2543C5.43002 23.0374 7.25669 21.2402 9.4736 21.2402C10.0233 21.2402 10.7577 20.4504 10.7197 19.902C10.7133 19.8089 10.71 19.7149 10.71 19.6202C10.71 19.1408 9.89496 18.4462 9.4214 18.5209C9.21571 18.5533 9.00483 18.5702 8.79002 18.5702C6.56984 18.5702 4.77002 16.7704 4.77002 14.5502V11.5502C4.77002 10.0196 4.77007 8.24487 4.77007 6.71426Z" fill="#CDCDCD"/>
</g>
</svg>
