<svg width="31" height="30" viewBox="0 0 31 30" fill="none" xmlns="http://www.w3.org/2000/svg">
<g id="S_4">
<path id="Union" fill-rule="evenodd" clip-rule="evenodd" d="M18.444 0.600098C16.2271 0.600098 14.4299 2.39726 14.4299 4.61416C14.4299 5.17369 13.8236 5.77036 13.2641 5.76071C13.2406 5.7603 13.2171 5.7601 13.1935 5.7601C10.9766 5.7601 9.1499 7.55726 9.1499 9.77416C9.1499 11.9911 10.9766 13.7882 13.1935 13.7882C13.2101 13.7882 13.2266 13.7881 13.2431 13.7879C13.8011 13.7812 14.3999 14.3762 14.3999 14.9342C14.3999 14.9483 14.4 14.9624 14.4001 14.9765C14.4061 15.5505 13.7675 16.2001 13.1935 16.2001C10.9766 16.2001 9.1499 17.9973 9.1499 20.2142C9.1499 22.4311 10.9766 24.2282 13.1935 24.2282C13.21 24.2282 13.2266 24.2281 13.2431 24.2279C13.8011 24.2212 14.3999 24.8162 14.3999 25.3742C14.3999 27.5911 16.2266 29.3882 18.4435 29.3882C20.6604 29.3882 22.4871 27.5911 22.4871 25.3742C22.4871 23.1573 20.6604 21.3601 18.4435 21.3601C18.4269 21.3601 18.4104 21.3602 18.3938 21.3604C17.8359 21.3672 17.2371 20.7722 17.2371 20.2142C17.2371 20.2 17.237 20.1859 17.2368 20.1719C17.2308 19.5978 17.8694 18.9482 18.4435 18.9482C20.6604 18.9482 22.4871 17.1511 22.4871 14.9342C22.4871 12.7173 20.6604 10.9201 18.4435 10.9201C18.4269 10.9201 18.4104 10.9202 18.3938 10.9204C17.8359 10.9272 17.2371 10.3322 17.2371 9.77416C17.2371 9.21704 17.8377 8.62124 18.3948 8.62793C18.4111 8.62813 18.4275 8.62823 18.444 8.62823C20.6609 8.62823 22.458 6.83107 22.458 4.61416C22.458 2.39726 20.6609 0.600098 18.444 0.600098Z" fill="#F0F0F0"/>
</g>
</svg>
