<svg width="28" height="32" viewBox="0 0 28 32" fill="none" xmlns="http://www.w3.org/2000/svg">
<path fill-rule="evenodd" clip-rule="evenodd" d="M27.75 16.3302C27.75 17.987 26.4069 19.3302 24.75 19.3302L21.75 19.3302L20.04 19.3302C18.3831 19.3302 17.04 20.6733 17.04 22.3302L17.04 28.0302C17.04 29.687 15.6968 31.0302 14.04 31.0302L13.89 31.0302C12.2331 31.0302 10.89 29.687 10.89 28.0302L10.89 22.3302C10.89 20.6733 9.54685 19.3302 7.88999 19.3302L6.50999 19.3302L3.39 19.3302C1.73315 19.3302 0.390001 17.987 0.390001 16.3302L0.390003 16.1802C0.390003 14.5233 1.73315 13.1802 3.39 13.1802L3.50999 13.1802C5.16685 13.1802 6.50999 11.837 6.50999 10.1802L6.50999 6.88019C6.50999 5.22334 7.85314 3.88019 9.50999 3.88019L9.65999 3.88019C11.3168 3.88019 12.66 5.22334 12.66 6.88019L12.66 11.7102C12.66 12.5221 13.3181 13.1802 14.13 13.1802C14.9419 13.1802 15.6 12.5221 15.6 11.7102L15.6 3.70019C15.6 2.04334 16.9431 0.700195 18.6 0.700195L18.75 0.700195C20.4069 0.700195 21.75 2.04334 21.75 3.70019L21.75 10.1802C21.75 11.837 23.0931 13.1802 24.75 13.1802C26.4069 13.1802 27.75 14.5233 27.75 16.1802L27.75 16.3302Z" fill="#CDCDCD"/>
</svg>
