<svg width="30" height="30" viewBox="0 0 30 30" fill="none" xmlns="http://www.w3.org/2000/svg">
<g id="S_2">
<path id="Union" fill-rule="evenodd" clip-rule="evenodd" d="M23.7599 26.5498L24 26.5498C25.6569 26.5498 27 25.2067 27 23.5498L27 5.5498C27 3.89295 25.6569 2.5498 24 2.5498L23.85 2.5498C22.1931 2.5498 20.85 3.89295 20.85 5.54981L20.85 18.9298C20.85 19.7416 20.1918 20.3998 19.38 20.3998C18.5681 20.3998 17.9099 19.7416 17.9099 18.9298L17.9099 11.3998C17.9099 9.74295 16.5668 8.39981 14.9099 8.39981L14.7599 8.39981C13.1031 8.39981 11.7599 9.74295 11.7599 11.3998L11.7599 18.9448C11.7599 19.7484 11.1085 20.3998 10.3049 20.3998C9.50135 20.3998 8.84992 19.7484 8.84992 18.9448L8.84992 17.3998C8.84992 15.743 7.50678 14.3998 5.84992 14.3998L5.69992 14.3998C4.04307 14.3998 2.69992 15.743 2.69992 17.3998L2.69992 20.5498L2.69992 23.5498C2.69993 25.2067 4.04307 26.5498 5.69992 26.5498L20.85 26.5498L23.7599 26.5498Z" fill="#F0F0F0"/>
</g>
</svg>
