<svg width="31" height="30" viewBox="0 0 31 30" fill="none" xmlns="http://www.w3.org/2000/svg">
<g id="S_4">
<path id="Union" fill-rule="evenodd" clip-rule="evenodd" d="M18.444 0.599609C16.2271 0.599609 14.4299 2.39677 14.4299 4.61368C14.4299 5.1732 13.8236 5.76987 13.2641 5.76022C13.2406 5.75981 13.2171 5.75961 13.1935 5.75961C10.9766 5.75961 9.1499 7.55677 9.1499 9.77368C9.1499 11.9906 10.9766 13.7877 13.1935 13.7877C13.2101 13.7877 13.2266 13.7876 13.2431 13.7874C13.8011 13.7807 14.3999 14.3757 14.3999 14.9337C14.3999 14.9478 14.4 14.9619 14.4001 14.976C14.4061 15.55 13.7675 16.1996 13.1935 16.1996C10.9766 16.1996 9.1499 17.9968 9.1499 20.2137C9.1499 22.4306 10.9766 24.2277 13.1935 24.2277C13.21 24.2277 13.2266 24.2276 13.2431 24.2274C13.8011 24.2207 14.3999 24.8157 14.3999 25.3737C14.3999 27.5906 16.2266 29.3877 18.4435 29.3877C20.6604 29.3877 22.4871 27.5906 22.4871 25.3737C22.4871 23.1568 20.6604 21.3596 18.4435 21.3596C18.4269 21.3596 18.4104 21.3597 18.3938 21.3599C17.8359 21.3667 17.2371 20.7717 17.2371 20.2137C17.2371 20.1996 17.237 20.1855 17.2368 20.1714C17.2308 19.5973 17.8694 18.9477 18.4435 18.9477C20.6604 18.9477 22.4871 17.1506 22.4871 14.9337C22.4871 12.7168 20.6604 10.9196 18.4435 10.9196C18.4269 10.9196 18.4104 10.9197 18.3938 10.9199C17.8359 10.9267 17.2371 10.3317 17.2371 9.77368C17.2371 9.21655 17.8377 8.62075 18.3948 8.62745C18.4111 8.62764 18.4275 8.62774 18.444 8.62774C20.6609 8.62774 22.458 6.83058 22.458 4.61368C22.458 2.39677 20.6609 0.599609 18.444 0.599609Z" fill="black"/>
</g>
</svg>
