<svg width="17" height="18" viewBox="0 0 17 18" fill="none" xmlns="http://www.w3.org/2000/svg">
<path fill-rule="evenodd" clip-rule="evenodd" d="M12.6045 17.4897C12.6045 17.4897 12.6045 17.4897 12.6046 17.4897L14.792 17.4897C15.9426 17.4897 16.8754 16.557 16.8754 15.4064L16.8754 2.90641C16.8754 1.75582 15.9426 0.82308 14.792 0.82308L14.6879 0.82308C13.5373 0.82308 12.6045 1.75582 12.6045 2.90641L12.6045 12.1979C12.6045 12.7618 12.1474 13.2189 11.5835 13.2189C11.0197 13.2189 10.5626 12.7618 10.5626 12.1979L10.5626 6.96888C10.5626 5.81829 9.62983 4.88555 8.47923 4.88554L8.37506 4.88554C7.22447 4.88554 6.29173 5.81828 6.29173 6.96888L6.29173 12.2085C6.29173 12.7665 5.83938 13.2189 5.28138 13.2189C4.72337 13.2189 4.27102 12.7665 4.27102 12.2085L4.27102 11.1355C4.27102 9.98495 3.33829 9.05221 2.18769 9.05221L2.08352 9.05221C0.932931 9.05221 0.000191391 9.98495 0.00019129 11.1355L0.000191108 13.2187C0.000191108 13.2188 0.000135795 13.2189 6.90379e-05 13.2189C3.73371e-07 13.2189 -5.49397e-05 13.2189 -5.49397e-05 13.219L-5.5131e-05 15.4064C-5.52316e-05 16.557 0.932685 17.4897 2.08328 17.4897L12.6045 17.4897C12.6045 17.4897 12.6045 17.4897 12.6045 17.4897Z" fill="black"/>
</svg>
